<svg xmlns="http://www.w3.org/2000/svg" xmlns:xlink="http://www.w3.org/1999/xlink" width="2000" zoomAndPan="magnify" viewBox="0 0 1500 1499.999933" height="2000" preserveAspectRatio="xMidYMid meet" version="1.0"><defs><g/><clipPath id="a051c27e68"><path d="M 209.296875 700 L 213 700 L 213 724 L 209.296875 724 Z M 209.296875 700 " clip-rule="nonzero"/></clipPath><clipPath id="9a39dd21ef"><path d="M 492 811 L 496.546875 811 L 496.546875 816 L 492 816 Z M 492 811 " clip-rule="nonzero"/></clipPath></defs><rect x="-150" width="1800" fill="#ffffff" y="-149.999993" height="1799.99992" fill-opacity="1"/><rect x="-150" width="1800" fill="#ffffff" y="-149.999993" height="1799.99992" fill-opacity="1"/><path fill="#1863c2" d="M 272.339844 862.796875 C 269.023438 859.386719 263.222656 853.769531 260.839844 852.265625 C 260.710938 852.199219 260.515625 852.144531 260.371094 852.144531 C 260.410156 853.757812 275.484375 868.355469 277.171875 868.414062 C 277.125 867.828125 274.519531 865.035156 272.339844 862.796875 " fill-opacity="1" fill-rule="nonzero"/><path fill="#1863c2" d="M 291.914062 876.933594 C 288.429688 873.960938 282.113281 869.09375 278.996094 867.886719 C 278.769531 867.824219 278.421875 867.730469 278.304688 867.839844 C 277.699219 868.382812 281.660156 872.113281 285.734375 875.253906 C 290.960938 879.277344 295.722656 882.207031 296.578125 881.917969 C 296.859375 881.285156 293.777344 878.523438 291.914062 876.933594 " fill-opacity="1" fill-rule="nonzero"/><path fill="#1863c2" d="M 226.769531 800.859375 C 226.691406 800.78125 226.554688 800.703125 226.449219 800.703125 C 226.417969 802.8125 236.488281 822.066406 237.671875 822.15625 C 237.683594 821.304688 235.671875 817.089844 234.472656 814.652344 C 232.375 810.398438 228.429688 802.890625 226.769531 800.859375 " fill-opacity="1" fill-rule="nonzero"/><path fill="#1863c2" d="M 239.300781 821.519531 C 239.089844 821.417969 238.832031 821.296875 238.699219 821.429688 C 237.390625 822.761719 249.210938 840.230469 252.011719 841.105469 C 253.09375 841.445312 251.917969 838.542969 249.144531 834.054688 C 246.554688 829.855469 241.785156 823.191406 239.300781 821.519531 " fill-opacity="1" fill-rule="nonzero"/><path fill="#1863c2" d="M 266.820312 851.367188 C 263.957031 847.546875 258.441406 841.558594 255.132812 840.199219 C 254.855469 840.128906 254.476562 840.035156 254.265625 840.183594 C 251.988281 841.761719 265.308594 857.351562 269.429688 857.929688 C 270.945312 858.140625 269.871094 855.441406 266.820312 851.367188 " fill-opacity="1" fill-rule="nonzero"/><path fill="#1863c2" d="M 217.890625 778.40625 C 218.019531 778.820312 218.222656 779.429688 218.476562 780.171875 C 218.277344 779.574219 218.070312 778.964844 217.886719 778.390625 L 217.890625 778.40625 " fill-opacity="1" fill-rule="nonzero"/><path fill="#1863c2" d="M 232.550781 807.972656 C 234.136719 808.863281 233.859375 805.308594 231.90625 799.691406 C 230.222656 794.84375 226.722656 787.210938 224.210938 785.421875 C 224.0625 785.359375 223.847656 785.253906 223.691406 785.285156 C 221.074219 785.789062 228.941406 805.925781 232.550781 807.972656 " fill-opacity="1" fill-rule="nonzero"/><path fill="#1863c2" d="M 247.261719 827.738281 C 249.425781 828.453125 249.273438 825.046875 246.902344 819.820312 C 244.851562 815.296875 240.410156 808.253906 236.949219 806.761719 C 236.652344 806.691406 236.246094 806.597656 235.941406 806.789062 C 232.917969 808.6875 242.332031 826.109375 247.261719 827.738281 " fill-opacity="1" fill-rule="nonzero"/><path fill="#1863c2" d="M 264.542969 845.328125 C 267.699219 846.367188 267.941406 843.050781 265.085938 837.9375 C 262.390625 833.105469 257.070312 827.242188 253.175781 826.191406 C 252.796875 826.148438 252.28125 826.089844 251.886719 826.300781 C 248.164062 828.265625 258.101562 843.203125 264.542969 845.328125 " fill-opacity="1" fill-rule="nonzero"/><path fill="#1863c2" d="M 215.347656 762.527344 C 215.265625 762.453125 215.140625 762.363281 215.035156 762.335938 C 213.457031 763.316406 219.65625 785.902344 221.667969 786.5 C 222.464844 786.003906 221 779.648438 220.53125 777.710938 C 219.382812 772.964844 216.960938 764.644531 215.347656 762.527344 " fill-opacity="1" fill-rule="nonzero"/><path fill="#1863c2" d="M 231.199219 792.070312 C 233.75 793.480469 234.675781 789.414062 233.269531 783.003906 C 232.148438 777.902344 229.035156 770.027344 225.625 768.484375 C 225.398438 768.433594 225.078125 768.367188 224.847656 768.417969 C 220.464844 769.378906 225.746094 789.054688 231.199219 792.070312 " fill-opacity="1" fill-rule="nonzero"/><path fill="#1863c2" d="M 245.550781 812.320312 C 249.195312 814.171875 250.628906 810.175781 248.621094 803.765625 C 247.097656 798.910156 242.964844 791.507812 238.535156 790.25 C 238.242188 790.21875 237.835938 790.179688 237.542969 790.25 C 232.351562 791.480469 238.636719 808.808594 245.550781 812.320312 " fill-opacity="1" fill-rule="nonzero"/><path fill="#1863c2" d="M 262.925781 830.59375 C 267.71875 832.800781 269.726562 828.96875 267.140625 822.554688 C 265.308594 818.015625 260.382812 811.21875 255.171875 810.324219 C 254.695312 810.3125 254.042969 810.292969 253.464844 810.566406 C 248.601562 812.871094 255.324219 827.09375 262.925781 830.59375 " fill-opacity="1" fill-rule="nonzero"/><path fill="#1863c2" d="M 220.023438 769.835938 C 221.828125 771.441406 222.648438 767.433594 221.859375 760.894531 C 221.238281 755.789062 219.292969 747.796875 216.902344 746.015625 C 216.742188 745.949219 216.511719 745.855469 216.34375 745.886719 C 213.09375 746.46875 216.15625 766.390625 220.023438 769.835938 " fill-opacity="1" fill-rule="nonzero"/><path fill="#1863c2" d="M 238.597656 764.976562 C 238.035156 759.835938 235.320312 752.035156 231.035156 750.773438 C 230.730469 750.746094 230.3125 750.714844 230.011719 750.785156 C 224.71875 752.019531 226.945312 769.4375 232.992188 774.074219 C 236.695312 776.917969 239.417969 772.492188 238.597656 764.976562 " fill-opacity="1" fill-rule="nonzero"/><path fill="#1863c2" d="M 254.003906 785.808594 C 252.980469 780.675781 249.203125 773.023438 244.015625 772.082031 C 243.644531 772.074219 243.136719 772.070312 242.777344 772.164062 C 236.753906 773.714844 239.929688 789.746094 247.246094 794.734375 C 252.234375 798.140625 255.582031 793.71875 254.003906 785.808594 " fill-opacity="1" fill-rule="nonzero"/><path fill="#1863c2" d="M 272.484375 805.175781 C 271.113281 800.28125 266.53125 793.113281 260.632812 792.503906 C 260.210938 792.519531 259.644531 792.550781 259.242188 792.664062 C 252.636719 794.550781 256.96875 809.746094 265.339844 814.058594 C 271.019531 816.984375 274.558594 812.585938 272.484375 805.175781 " fill-opacity="1" fill-rule="nonzero"/><path fill="#1863c2" d="M 222.53125 752.464844 C 225.089844 754.667969 227.242188 750.4375 227.140625 743.414062 C 227.066406 738.304688 225.515625 730.429688 222.3125 728.929688 C 222.078125 728.878906 221.75 728.824219 221.519531 728.871094 C 216.945312 729.820312 217.742188 748.34375 222.53125 752.464844 " fill-opacity="1" fill-rule="nonzero"/><path fill="#1863c2" d="M 247.441406 746.164062 C 247.339844 741.003906 244.980469 733.320312 240.046875 732.398438 C 239.863281 732.394531 239.609375 732.375 239.425781 732.386719 C 232.875 732.855469 232.140625 748.570312 238.378906 754.804688 C 242.867188 759.296875 247.613281 754.773438 247.441406 746.164062 " fill-opacity="1" fill-rule="nonzero"/><path fill="#1863c2" d="M 262.5 766.386719 C 261.949219 761.203125 258.582031 753.628906 252.832031 753.007812 C 252.621094 753.019531 252.332031 753.011719 252.121094 753.039062 C 244.710938 753.921875 245.304688 769.761719 252.964844 775.632812 C 258.429688 779.820312 263.417969 774.980469 262.5 766.386719 " fill-opacity="1" fill-rule="nonzero"/><path fill="#1863c2" d="M 280.738281 785.847656 C 279.785156 780.679688 275.539062 773.257812 269.09375 772.949219 C 268.855469 772.972656 268.535156 772.980469 268.300781 773.019531 C 260.691406 774.21875 261.800781 788.925781 269.949219 794.871094 C 276.542969 799.683594 282.390625 794.789062 280.738281 785.847656 " fill-opacity="1" fill-rule="nonzero"/><path fill="#1863c2" d="M 228.214844 733.957031 C 231.46875 737.71875 235.40625 733.367188 236.011719 725.339844 C 236.398438 720.253906 235.164062 712.550781 231.207031 711.347656 C 231.058594 711.335938 230.859375 711.300781 230.707031 711.304688 C 225.210938 711.398438 223.351562 728.335938 228.214844 733.957031 " fill-opacity="1" fill-rule="nonzero"/><path fill="#1863c2" d="M 247.335938 735.667969 C 251.964844 740.90625 258.199219 736.175781 258.640625 727.089844 C 258.894531 721.949219 256.847656 714.441406 251.507812 713.832031 C 243.503906 714.175781 241.832031 729.433594 247.335938 735.667969 " fill-opacity="1" fill-rule="nonzero"/><path fill="#1863c2" d="M 273.375 746.617188 C 273.183594 741.421875 270.140625 733.964844 263.988281 733.644531 C 254.992188 734.429688 254.621094 749.878906 261.453125 755.859375 C 267.140625 760.835938 273.714844 755.738281 273.375 746.617188 " fill-opacity="1" fill-rule="nonzero"/><path fill="#1863c2" d="M 277.976562 774.671875 C 284.789062 780.539062 292.363281 775.324219 291.261719 765.527344 C 290.675781 760.3125 286.765625 752.960938 279.914062 752.9375 C 270.585938 754.085938 270.648438 768.363281 277.976562 774.671875 " fill-opacity="1" fill-rule="nonzero"/><path fill="#1863c2" d="M 247.503906 707.117188 C 248.238281 702.078125 247.273438 694.589844 242.824219 693.714844 C 235.734375 693.625 232.832031 709.96875 237.398438 715.644531 C 240.972656 720.09375 246.261719 715.628906 247.503906 707.117188 " fill-opacity="1" fill-rule="nonzero"/><path fill="#1863c2" d="M 305.28125 861.496094 C 310.867188 862.910156 313.082031 859.390625 310.023438 853.957031 C 307.855469 850.113281 302.050781 844.605469 295.917969 844.390625 C 295.082031 844.453125 294.21875 844.519531 293.378906 845.105469 C 288.636719 848.40625 296.535156 859.285156 305.28125 861.496094 " fill-opacity="1" fill-rule="nonzero"/><path fill="#1863c2" d="M 315.480469 838.066406 C 313.746094 833.824219 308.230469 827.867188 301.402344 827.910156 C 300.769531 827.984375 299.90625 828.085938 299.09375 828.472656 C 292.863281 831.417969 297.769531 842.742188 306.8125 846.292969 C 313.777344 849.027344 318.234375 844.800781 315.480469 838.066406 " fill-opacity="1" fill-rule="nonzero"/><path fill="#1863c2" d="M 323.730469 820.09375 C 322.363281 815.472656 317.105469 809.101562 309.691406 809.410156 C 309.421875 809.453125 309.054688 809.488281 308.785156 809.546875 C 300.625 811.269531 302.128906 823.375 311.148438 828.59375 C 319.144531 833.214844 326.199219 828.449219 323.730469 820.09375 " fill-opacity="1" fill-rule="nonzero"/><path fill="#1863c2" d="M 320.296875 788.980469 C 320.007812 789.03125 319.617188 789.085938 319.328125 789.15625 C 310.515625 791.285156 311.015625 804.410156 320.117188 809.8125 C 328.121094 814.5625 336.191406 809.050781 334.277344 800.144531 C 333.203125 795.171875 328.160156 788.417969 320.296875 788.980469 " fill-opacity="1" fill-rule="nonzero"/><path fill="#1863c2" d="M 306.625 874.300781 C 310.453125 874.800781 310.925781 871.910156 307.699219 867.71875 C 305.0625 864.285156 298.9375 859.246094 293.59375 858.78125 C 292.878906 858.800781 292.140625 858.820312 291.527344 859.292969 C 287.746094 862.210938 298.894531 873.296875 306.625 874.300781 " fill-opacity="1" fill-rule="nonzero"/><path fill="#1863c2" d="M 310.804688 884.804688 C 312.941406 884.753906 312.113281 882.558594 308.753906 879.339844 C 305.820312 876.53125 299.40625 871.808594 294.683594 871.089844 C 294.097656 871.066406 293.492188 871.035156 293.113281 871.398438 C 290.628906 873.785156 305.34375 884.9375 310.804688 884.804688 " fill-opacity="1" fill-rule="nonzero"/><path fill="#1863c2" d="M 284.996094 831.433594 C 292.199219 834.972656 296.894531 830.304688 294.128906 822.351562 C 292.398438 817.375 286.804688 810.234375 279.785156 809.945312 C 279.289062 809.988281 278.621094 810.050781 278.140625 810.191406 C 270.746094 812.40625 275.359375 826.703125 284.996094 831.433594 " fill-opacity="1" fill-rule="nonzero"/><path fill="#1863c2" d="M 283.699219 847.625 C 289.367188 849.554688 291.71875 845.496094 288.628906 839.113281 C 286.417969 834.542969 280.480469 827.84375 274.210938 827.261719 C 273.640625 827.277344 272.855469 827.300781 272.160156 827.625 C 266.203125 830.402344 274.289062 844.421875 283.699219 847.625 " fill-opacity="1" fill-rule="nonzero"/><path fill="#1863c2" d="M 220.488281 721.683594 C 220.949219 716.21875 220.535156 707.703125 218.164062 705.882812 C 217.984375 705.8125 217.726562 705.730469 217.539062 705.761719 C 213.527344 706.453125 212.382812 727.773438 216.164062 731.390625 C 217.953125 733.105469 219.894531 728.75 220.488281 721.683594 " fill-opacity="1" fill-rule="nonzero"/><path fill="#1863c2" d="M 212.527344 722.222656 C 212.425781 722.144531 212.269531 722.015625 212.144531 722.03125 C 209.730469 722.296875 210.824219 745.492188 213.371094 748.15625 C 214.449219 749.285156 215.160156 745.152344 215.027344 738.542969 C 214.914062 733.039062 214.066406 724.339844 212.527344 722.222656 " fill-opacity="1" fill-rule="nonzero"/><path fill="#1863c2" d="M 301.605469 803.566406 C 300.390625 798.625 295.519531 791.671875 288.496094 791.679688 C 287.984375 791.742188 287.300781 791.835938 286.816406 791.996094 C 279.402344 794.441406 281.636719 807.566406 290.332031 812.648438 C 297.554688 816.871094 303.664062 811.949219 301.605469 803.566406 " fill-opacity="1" fill-rule="nonzero"/><path fill="#1863c2" d="M 298.394531 792.53125 C 305.964844 797.917969 313.835938 792.4375 312.199219 782.917969 C 311.304688 777.714844 306.699219 770.515625 299.253906 770.792969 C 298.980469 770.835938 298.609375 770.875 298.335938 770.9375 C 289.890625 772.78125 289.929688 786.507812 298.394531 792.53125 " fill-opacity="1" fill-rule="nonzero"/><path fill="#1863c2" d="M 284.78125 860.746094 C 288.410156 861.511719 288.816406 858.421875 285.699219 853.710938 C 283.175781 849.890625 277.378906 844.15625 272.394531 843.355469 C 271.730469 843.332031 271.046875 843.304688 270.480469 843.773438 C 267.082031 846.578125 277.769531 859.269531 284.78125 860.746094 " fill-opacity="1" fill-rule="nonzero"/><path fill="#1863c2" d="M 289.175781 872.363281 C 291.070312 872.441406 290.144531 869.953125 286.921875 866.316406 C 283.886719 862.890625 277.792969 857.601562 273.742188 856.570312 C 273.207031 856.503906 272.703125 856.4375 272.414062 856.804688 C 270.492188 859.230469 284.429688 872.171875 289.175781 872.363281 " fill-opacity="1" fill-rule="nonzero"/><g clip-path="url(#a051c27e68)"><path fill="#1863c2" d="M 212 700.328125 C 211.980469 700.28125 211.953125 700.214844 211.929688 700.164062 C 211.882812 700.160156 211.816406 700.15625 211.765625 700.15625 C 210.507812 702.273438 209.292969 721.617188 210.273438 723.945312 C 210.324219 723.945312 210.390625 723.949219 210.4375 723.949219 C 210.988281 722.941406 211.449219 718.125 211.679688 715.339844 C 212.058594 710.664062 212.484375 702.457031 212 700.328125 " fill-opacity="1" fill-rule="nonzero"/></g><path fill="#1863c2" d="M 217.089844 699.320312 C 218.019531 694.402344 218.796875 686.664062 217.613281 684.867188 C 217.519531 684.792969 217.367188 684.695312 217.25 684.707031 C 214.652344 685 211.324219 705.675781 213.503906 708 C 214.429688 708.988281 215.972656 705.253906 217.089844 699.320312 " fill-opacity="1" fill-rule="nonzero"/><path fill="#1863c2" d="M 225.875 682.972656 C 227.257812 678.140625 228.378906 670.65625 226.546875 669.136719 C 226.46875 669.109375 226.367188 669.054688 226.285156 669.042969 C 222.710938 668.453125 217.414062 686.988281 219.914062 691.324219 C 221.210938 693.570312 223.9375 689.742188 225.875 682.972656 " fill-opacity="1" fill-rule="nonzero"/><path fill="#1863c2" d="M 229.578125 674.59375 C 231.113281 677.402344 234.917969 673.492188 237.558594 666.386719 C 239.308594 661.679688 240.703125 654.496094 238.332031 653.265625 C 233.886719 652.476562 226.851562 669.621094 229.578125 674.59375 " fill-opacity="1" fill-rule="nonzero"/><path fill="#1863c2" d="M 228.9375 703.867188 C 229.828125 698.890625 229.789062 691.253906 226.925781 689.863281 C 226.808594 689.839844 226.660156 689.796875 226.542969 689.789062 C 221.914062 689.542969 218.511719 707.300781 222.210938 712.410156 C 224.355469 715.375 227.625 711.222656 228.9375 703.867188 " fill-opacity="1" fill-rule="nonzero"/><path fill="#1863c2" d="M 231.757812 694.640625 C 234.214844 698.257812 238.75 694.011719 240.742188 686.226562 C 241.996094 681.335938 242.203125 673.957031 238.75 672.867188 C 232.582031 672.378906 228.277344 689.519531 231.757812 694.640625 " fill-opacity="1" fill-rule="nonzero"/><path fill="#1863c2" d="M 272.5 706.414062 C 273.019531 701.34375 271.226562 694.074219 265.621094 693.769531 C 257.746094 694.488281 254.6875 708.539062 259.382812 714.796875 C 263.921875 720.847656 271.523438 715.992188 272.5 706.414062 " fill-opacity="1" fill-rule="nonzero"/><path fill="#1863c2" d="M 286.90625 725.089844 C 286.980469 719.9375 284.199219 712.667969 277.773438 712.636719 C 268.765625 713.777344 266.90625 727.9375 273.015625 734.199219 C 278.714844 740.039062 286.765625 734.761719 286.90625 725.089844 " fill-opacity="1" fill-rule="nonzero"/><path fill="#1863c2" d="M 289.929688 753.070312 C 296.617188 758.648438 305.035156 752.988281 304.457031 743.304688 C 304.144531 738.09375 300.5 730.875 293.367188 731.128906 C 283.546875 732.671875 282.679688 747.027344 289.929688 753.070312 " fill-opacity="1" fill-rule="nonzero"/><path fill="#1863c2" d="M 311.933594 749.121094 C 302.15625 750.925781 301.472656 764.347656 308.691406 770.5625 C 316.164062 776.996094 325.851562 771.15625 324.636719 760.945312 C 324.011719 755.714844 319.660156 748.585938 311.933594 749.121094 " fill-opacity="1" fill-rule="nonzero"/><path fill="#1863c2" d="M 257.25 674.738281 C 250 675.097656 245.886719 689.972656 249.871094 695.789062 C 253.378906 700.902344 259.890625 696.300781 261.683594 687.441406 C 262.683594 682.5 261.96875 675.296875 257.25 674.738281 " fill-opacity="1" fill-rule="nonzero"/><path fill="#1863c2" d="M 244.023438 676.546875 C 246.5625 680.761719 252.167969 676.472656 254.738281 668.355469 C 256.246094 663.585938 256.667969 656.519531 252.882812 655.746094 C 246.363281 655.722656 240.8125 671.214844 244.023438 676.546875 " fill-opacity="1" fill-rule="nonzero"/><path fill="#1863c2" d="M 262.933594 774.710938 L 262.855469 774.84375 L 262.875 774.859375 Z M 262.933594 774.710938 " fill-opacity="1" fill-rule="nonzero"/><path fill="#1863c2" d="M 267.746094 794.355469 L 267.894531 794.488281 L 267.765625 794.355469 C 267.757812 794.355469 267.753906 794.355469 267.746094 794.355469 " fill-opacity="1" fill-rule="nonzero"/><path fill="#1863c2" d="M 328.714844 858.636719 C 335.90625 861.457031 340.882812 857.578125 338.054688 851.351562 C 336.386719 847.679688 331.042969 842.640625 324.394531 842.933594 C 323.699219 843.039062 322.835938 843.171875 322.015625 843.585938 C 316.460938 846.398438 320.46875 855.398438 328.714844 858.636719 " fill-opacity="1" fill-rule="nonzero"/><path fill="#1863c2" d="M 327.640625 873.140625 C 333.109375 874.199219 335.359375 870.917969 332.355469 866.257812 C 330.414062 863.253906 325.03125 858.511719 318.835938 858.582031 C 318.425781 858.605469 317.175781 858.691406 316.210938 859.390625 C 311.847656 862.535156 319.324219 871.53125 327.640625 873.140625 " fill-opacity="1" fill-rule="nonzero"/><path fill="#1863c2" d="M 300.597656 704.210938 C 300.863281 699.382812 298.4375 692.664062 292.214844 692.84375 C 284.628906 693.640625 280.902344 705.878906 286.269531 712.390625 C 291.375 718.589844 300.082031 713.621094 300.597656 704.210938 " fill-opacity="1" fill-rule="nonzero"/><path fill="#1863c2" d="M 280.292969 674.996094 C 272.800781 675.980469 269.316406 688.683594 273.417969 694.335938 C 277.460938 699.898438 285.027344 695.53125 286.484375 686.796875 C 287.285156 681.972656 285.898438 675.125 280.292969 674.996094 " fill-opacity="1" fill-rule="nonzero"/><path fill="#1863c2" d="M 215.203125 684.683594 C 216.050781 684.226562 217.550781 679.558594 218.367188 676.816406 C 218.691406 675.730469 221.519531 666.15625 221.101562 663.824219 C 221.0625 663.757812 220.992188 663.664062 220.917969 663.636719 C 220.878906 663.652344 220.824219 663.667969 220.789062 663.695312 C 218.851562 664.996094 213.734375 684.222656 215.203125 684.683594 " fill-opacity="1" fill-rule="nonzero"/><path fill="#1863c2" d="M 346.128906 834.007812 C 344.796875 830.242188 340.15625 824.847656 332.835938 825.414062 C 332.285156 825.515625 331.546875 825.652344 331.019531 825.839844 C 324.183594 828.273438 326.179688 838.15625 334.304688 842.105469 C 341.3125 845.511719 348.875 841.761719 346.128906 834.007812 " fill-opacity="1" fill-rule="nonzero"/><path fill="#1863c2" d="M 316.574219 892.578125 C 317.585938 892.414062 315.3125 890.476562 312.84375 888.71875 C 310.042969 886.726562 303.769531 882.710938 300.066406 881.800781 C 299.625 881.742188 299.242188 881.6875 299.144531 881.933594 C 298.453125 883.6875 313.761719 893.035156 316.574219 892.578125 " fill-opacity="1" fill-rule="nonzero"/><path fill="#1863c2" d="M 328.46875 884.757812 C 332.3125 885.027344 332.835938 882.65625 329.707031 879.125 C 327.65625 876.808594 322.253906 872.378906 316.46875 872.203125 C 315.695312 872.257812 314.964844 872.308594 314.355469 872.765625 C 310.824219 875.402344 321.242188 884.257812 328.46875 884.757812 " fill-opacity="1" fill-rule="nonzero"/><path fill="#1863c2" d="M 264.339844 676.125 C 267.148438 680.261719 273.703125 677.09375 275.871094 668.769531 C 276.664062 665.714844 277.539062 657.707031 272.128906 657.324219 C 265.285156 657.96875 260.894531 671.050781 264.339844 676.125 " fill-opacity="1" fill-rule="nonzero"/><path fill="#1863c2" d="M 227.152344 661.675781 C 228.59375 658.132812 231.066406 650.988281 230.105469 649.308594 C 230.058594 649.277344 230 649.21875 229.945312 649.199219 C 227.742188 648.441406 220.746094 665.949219 222.070312 668.917969 C 222.714844 670.371094 224.855469 667.324219 227.152344 661.675781 " fill-opacity="1" fill-rule="nonzero"/><path fill="#1863c2" d="M 307.597656 710.707031 C 298.351562 712.410156 297.503906 724.832031 302.632812 730.179688 C 308.136719 735.914062 317.863281 731.878906 317.613281 721.6875 C 317.453125 714.992188 312.960938 710.070312 307.597656 710.707031 " fill-opacity="1" fill-rule="nonzero"/><path fill="#1863c2" d="M 345.765625 777.910156 C 344.96875 773.351562 340.941406 766.847656 333.105469 767.625 C 323.828125 769.089844 323.675781 781.925781 330.859375 787.261719 C 337.738281 792.371094 347.488281 787.808594 345.765625 777.910156 " fill-opacity="1" fill-rule="nonzero"/><path fill="#1863c2" d="M 342.585938 823.1875 C 350.160156 827.933594 358.539062 823.027344 356.59375 814.984375 C 355.226562 809.335938 349.132812 805.105469 343.554688 805.929688 C 343.269531 805.988281 342.886719 806.050781 342.609375 806.128906 C 334.921875 808.175781 334.910156 818.378906 342.585938 823.1875 " fill-opacity="1" fill-rule="nonzero"/><path fill="#1863c2" d="M 252.183594 638.09375 C 247.351562 637.789062 240.757812 652.171875 242.589844 656.386719 C 243.917969 659.441406 248.289062 656.039062 251.253906 649.644531 C 253.066406 645.730469 254.921875 639.136719 252.183594 638.09375 " fill-opacity="1" fill-rule="nonzero"/><path fill="#1863c2" d="M 332.152344 894.082031 C 334.035156 893.921875 333.398438 892.175781 330.605469 889.832031 C 326.800781 886.644531 320.675781 883.730469 317.496094 883.597656 C 316.914062 883.609375 316.363281 883.621094 316.003906 883.957031 C 313.613281 886.207031 326.894531 894.535156 332.152344 894.082031 " fill-opacity="1" fill-rule="nonzero"/><path fill="#1863c2" d="M 267.898438 639.761719 C 262.476562 640.113281 256.378906 651.972656 258.835938 657.382812 C 260.796875 661.699219 266.722656 657.6875 269.402344 650.230469 C 270.859375 646.175781 271.359375 640.246094 267.898438 639.761719 " fill-opacity="1" fill-rule="nonzero"/><path fill="#1863c2" d="M 232.226562 653.164062 C 232.941406 655.058594 236.085938 651.695312 238.964844 645.960938 C 240.886719 642.132812 243.144531 635.929688 241.898438 634.773438 C 241.890625 634.769531 241.882812 634.761719 241.875 634.761719 C 238.972656 633.636719 230.765625 649.289062 232.226562 653.164062 " fill-opacity="1" fill-rule="nonzero"/><path fill="#1863c2" d="M 325.949219 728.222656 C 317.636719 729.527344 315.257812 741.667969 322.148438 747.609375 C 328.90625 753.4375 338.074219 747.929688 337.238281 738.539062 C 336.820312 733.851562 333.042969 727.550781 325.949219 728.222656 " fill-opacity="1" fill-rule="nonzero"/><path fill="#1863c2" d="M 360.457031 863.433594 C 358.714844 859.238281 352.550781 855.816406 347.765625 856.398438 C 347.328125 856.476562 346.742188 856.585938 346.324219 856.734375 C 341.019531 858.625 342.34375 865.773438 350.46875 869.21875 C 357.722656 872.289062 362.535156 868.453125 360.457031 863.433594 " fill-opacity="1" fill-rule="nonzero"/><path fill="#1863c2" d="M 354.617188 877.199219 C 352.8125 874.4375 347.441406 870.746094 342.054688 870.996094 C 341.085938 871.09375 340.292969 871.363281 339.695312 871.796875 C 335.894531 874.558594 341.71875 881.28125 349.277344 882.867188 C 355.089844 884.082031 356.949219 880.761719 354.617188 877.199219 " fill-opacity="1" fill-rule="nonzero"/><path fill="#1863c2" d="M 307.035156 673.207031 C 300.769531 674.03125 296.238281 684.671875 301.214844 690.773438 C 305.808594 696.410156 313.828125 691.984375 314.617188 683.378906 C 315.027344 678.914062 312.621094 672.890625 307.035156 673.207031 " fill-opacity="1" fill-rule="nonzero"/><path fill="#1863c2" d="M 300.96875 666.484375 C 301.949219 660.886719 299.277344 656.089844 295.367188 656.414062 C 288.8125 657.511719 284.6875 668.433594 288.777344 673.851562 C 292.683594 679.03125 299.699219 673.742188 300.96875 666.484375 " fill-opacity="1" fill-rule="nonzero"/><path fill="#1863c2" d="M 232.300781 641.371094 C 233.113281 639.863281 237.152344 632.269531 237.007812 630.375 C 236.988281 630.339844 236.972656 630.285156 236.9375 630.261719 C 235.671875 629.324219 227.171875 645.449219 227.847656 647.515625 C 228.109375 648.328125 229.816406 645.972656 232.300781 641.371094 " fill-opacity="1" fill-rule="nonzero"/><path fill="#1863c2" d="M 279.730469 656.34375 C 282.203125 660.644531 288.824219 657.371094 290.871094 649.234375 C 291.800781 645.542969 291.65625 640.015625 287.460938 639.9375 C 281.371094 640.757812 277.050781 651.679688 279.730469 656.34375 " fill-opacity="1" fill-rule="nonzero"/><path fill="#1863c2" d="M 322.171875 690.105469 C 314.84375 691.253906 311.902344 702.644531 317.542969 708.027344 C 323.015625 713.253906 331.511719 708.0625 331.316406 699.613281 C 331.222656 695.609375 328.660156 689.488281 322.171875 690.105469 " fill-opacity="1" fill-rule="nonzero"/><path fill="#1863c2" d="M 368.460938 846.660156 C 366.714844 842.15625 361.28125 839.085938 356.34375 839.816406 C 355.859375 839.914062 355.207031 840.046875 354.742188 840.214844 C 348.550781 842.4375 349.914062 850.492188 357.054688 853.894531 C 364.21875 857.304688 370.933594 853.046875 368.460938 846.660156 " fill-opacity="1" fill-rule="nonzero"/><path fill="#1863c2" d="M 351.769531 888.847656 C 348.722656 885.707031 343.269531 883.316406 339.609375 883.511719 C 339 883.578125 337.976562 883.6875 337.40625 884.289062 C 334.960938 886.859375 344.046875 893.296875 350.363281 893.472656 C 353.875 893.570312 354.464844 891.625 351.769531 888.847656 " fill-opacity="1" fill-rule="nonzero"/><path fill="#1863c2" d="M 267.515625 622.960938 C 263.492188 622.589844 256.007812 634.550781 257.503906 638.960938 C 258.554688 642.050781 263.191406 639.53125 266.679688 632.625 C 268.230469 629.558594 270.398438 623.59375 267.515625 622.960938 " fill-opacity="1" fill-rule="nonzero"/><path fill="#1863c2" d="M 337.960938 901.136719 C 338.851562 900.957031 337.511719 899.769531 334.375 897.96875 C 333.601562 897.527344 326.707031 893.617188 322.34375 892.996094 C 321.886719 892.96875 321.457031 892.945312 321.308594 893.164062 C 320.316406 894.644531 335.101562 901.722656 337.960938 901.136719 " fill-opacity="1" fill-rule="nonzero"/><path fill="#1863c2" d="M 379.074219 828.664062 C 378.203125 825.140625 374.308594 820.25 367.125 821.191406 C 367.121094 821.195312 367.121094 821.195312 367.121094 821.195312 C 367.121094 821.195312 367.117188 821.195312 367.117188 821.195312 C 367.117188 821.195312 367.117188 821.195312 367.113281 821.195312 C 367.109375 821.195312 367.109375 821.195312 367.109375 821.195312 C 367.105469 821.195312 367.105469 821.195312 367.105469 821.195312 C 367.105469 821.195312 367.101562 821.195312 367.101562 821.195312 C 366.003906 821.449219 363.71875 821.976562 362.167969 824.074219 C 358.46875 829.074219 363.476562 838.65625 373.140625 837.378906 C 373.140625 837.378906 373.140625 837.378906 373.144531 837.378906 C 373.144531 837.375 373.144531 837.375 373.144531 837.375 C 373.144531 837.375 373.148438 837.375 373.148438 837.375 C 373.148438 837.375 373.148438 837.375 373.152344 837.375 C 373.15625 837.375 373.15625 837.375 373.15625 837.371094 C 373.15625 837.371094 373.160156 837.371094 373.160156 837.371094 C 380.570312 835.667969 379.246094 829.375 379.074219 828.664062 " fill-opacity="1" fill-rule="nonzero"/><path fill="#1863c2" d="M 368.4375 794.058594 C 367.734375 790.019531 363.738281 783.960938 356.015625 784.902344 C 347.019531 787.007812 347.066406 798.015625 354.085938 802.628906 C 361.28125 807.355469 369.867188 802.230469 368.4375 794.058594 " fill-opacity="1" fill-rule="nonzero"/><path fill="#1863c2" d="M 346.835938 745.582031 C 338.527344 747.113281 336.777344 759.050781 344.078125 764.363281 C 351.078125 769.453125 359.875 763.71875 358.5625 754.921875 C 357.796875 749.78125 353.425781 744.757812 346.835938 745.582031 " fill-opacity="1" fill-rule="nonzero"/><path fill="#1863c2" d="M 223.425781 655.332031 C 224.640625 652.421875 227.503906 645.472656 227.859375 643.738281 C 227.867188 643.695312 227.867188 643.636719 227.867188 643.59375 C 227.839844 643.59375 227.796875 643.59375 227.769531 643.59375 C 226.570312 645.070312 219.863281 660.945312 220.421875 661.925781 C 220.601562 661.675781 221.015625 661.097656 223.425781 655.332031 " fill-opacity="1" fill-rule="nonzero"/><path fill="#1863c2" d="M 320.488281 895.964844 C 312.570312 891.859375 310.3125 890.867188 309.144531 890.445312 C 309.144531 890.445312 309.140625 890.445312 309.140625 890.441406 C 309.140625 890.441406 309.136719 890.441406 309.136719 890.441406 C 309.136719 890.441406 309.136719 890.4375 309.132812 890.4375 C 309.132812 890.4375 309.132812 890.4375 309.128906 890.4375 C 309.019531 890.40625 308.867188 890.363281 308.75 890.347656 C 308.742188 890.371094 308.734375 890.410156 308.726562 890.4375 C 310.371094 891.992188 324.207031 898.679688 325.839844 898.929688 C 325.777344 898.792969 325.726562 898.683594 320.488281 895.964844 " fill-opacity="1" fill-rule="nonzero"/><path fill="#1863c2" d="M 245.171875 636.9375 C 245.753906 638.992188 248.980469 636.964844 252.679688 630.765625 C 252.890625 630.410156 257.863281 622.015625 255.71875 620.691406 C 252.019531 620.109375 244.238281 633.636719 245.171875 636.9375 " fill-opacity="1" fill-rule="nonzero"/><path fill="#1863c2" d="M 353.21875 901.585938 C 353.222656 901.585938 353.222656 901.585938 353.222656 901.585938 C 353.222656 901.585938 353.226562 901.585938 353.226562 901.585938 C 353.230469 901.585938 353.230469 901.585938 353.230469 901.585938 C 353.355469 901.578125 353.527344 901.574219 353.652344 901.558594 C 355.421875 901.355469 354.941406 900.058594 352.425781 898.261719 C 348.867188 895.71875 343.519531 893.675781 340.507812 893.710938 C 339.96875 893.75 339.414062 893.785156 339.066406 894.074219 C 337.144531 895.664062 346.902344 901.460938 353.21875 901.585938 " fill-opacity="1" fill-rule="nonzero"/><path fill="#1863c2" d="M 283.511719 623.695312 C 282.90625 623.757812 281.996094 623.855469 280.453125 625.109375 C 274.925781 629.59375 271.816406 640.25 277.039062 640.628906 C 277.039062 640.628906 277.042969 640.628906 277.042969 640.628906 C 277.042969 640.628906 277.042969 640.628906 277.046875 640.628906 C 277.050781 640.628906 277.050781 640.628906 277.050781 640.628906 C 281.371094 640.1875 284.191406 633.785156 284.5 633.054688 C 286.40625 628.539062 286.464844 623.695312 283.511719 623.695312 " fill-opacity="1" fill-rule="nonzero"/><path fill="#1863c2" d="M 248.8125 617.019531 C 247.4375 616.699219 237.105469 630.386719 238.488281 633.195312 C 238.488281 633.195312 238.488281 633.195312 238.492188 633.195312 C 238.492188 633.195312 238.492188 633.195312 238.492188 633.199219 C 238.492188 633.199219 238.496094 633.199219 238.496094 633.199219 C 239.6875 633.890625 243.863281 627.558594 244.335938 626.832031 C 245.824219 624.546875 249.558594 618.335938 248.945312 617.09375 C 248.902344 617.070312 248.855469 617.027344 248.8125 617.019531 " fill-opacity="1" fill-rule="nonzero"/><path fill="#1863c2" d="M 340.378906 706.824219 C 331.46875 708.917969 331.296875 720.074219 336.570312 724.535156 C 342.050781 729.175781 351.226562 724.988281 350.617188 716.097656 C 350.203125 710.074219 345.613281 705.914062 340.378906 706.824219 " fill-opacity="1" fill-rule="nonzero"/><path fill="#1863c2" d="M 361.089844 723.238281 C 353.691406 725.160156 351.550781 734.660156 357.339844 739.902344 C 364.003906 745.9375 372.613281 739.933594 371.933594 732.066406 C 371.566406 727.785156 367.589844 722.332031 361.089844 723.238281 " fill-opacity="1" fill-rule="nonzero"/><path fill="#1863c2" d="M 381.292969 771.257812 C 380.539062 765.644531 374.824219 761.316406 369.539062 762.351562 C 361.9375 764.359375 360.125 774.261719 366.410156 779.445312 C 373.820312 785.554688 382.386719 779.386719 381.292969 771.257812 " fill-opacity="1" fill-rule="nonzero"/><path fill="#1863c2" d="M 391.179688 808.199219 C 390.265625 803.335938 384.652344 799.679688 379.632812 800.675781 C 372.171875 802.625 370.738281 811.445312 377.160156 815.898438 C 384.496094 820.984375 392.515625 815.277344 391.179688 808.199219 " fill-opacity="1" fill-rule="nonzero"/><path fill="#1863c2" d="M 260.285156 621.132812 C 260.648438 623.765625 264.917969 620.316406 268.15625 615.648438 C 270.476562 612.300781 272.839844 607.320312 271.238281 606.675781 C 267.832031 606.558594 259.742188 617.230469 260.285156 621.132812 " fill-opacity="1" fill-rule="nonzero"/><path fill="#1863c2" d="M 381.835938 873.496094 C 380.460938 870.113281 375.003906 867.398438 370.824219 868.015625 C 370.433594 868.09375 369.910156 868.203125 369.535156 868.339844 C 365.097656 869.957031 365.695312 875.457031 372.113281 878.253906 C 378.679688 881.113281 383.585938 877.808594 381.835938 873.496094 " fill-opacity="1" fill-rule="nonzero"/><path fill="#1863c2" d="M 330.6875 900.164062 C 330.570312 900.144531 330.414062 900.128906 330.292969 900.128906 C 330.277344 900.15625 330.261719 900.195312 330.246094 900.226562 C 331.648438 901.605469 343.855469 905.875 346.632812 906.300781 C 346.65625 906.277344 346.695312 906.242188 346.71875 906.21875 C 346.253906 905.921875 344.632812 905.222656 341.898438 904.136719 C 341.039062 903.796875 333.421875 900.785156 330.6875 900.164062 " fill-opacity="1" fill-rule="nonzero"/><path fill="#1863c2" d="M 273.867188 622.210938 C 274.785156 625.070312 279.28125 622.085938 282.457031 616.511719 C 284.183594 613.484375 286.003906 608.515625 283.539062 608.085938 C 279.511719 608.375 272.644531 618.40625 273.867188 622.210938 " fill-opacity="1" fill-rule="nonzero"/><path fill="#1863c2" d="M 359.359375 907.390625 C 360.039062 906.996094 357.136719 905.601562 356.230469 905.183594 C 352.738281 903.566406 347.445312 901.761719 344.976562 901.65625 C 344.582031 901.660156 344.175781 901.667969 344.054688 901.871094 C 343.175781 903.3125 357.480469 908.472656 359.359375 907.390625 " fill-opacity="1" fill-rule="nonzero"/><path fill="#1863c2" d="M 321.609375 653.941406 C 315.425781 655.320312 312.371094 664.800781 316.578125 669.546875 C 320.675781 674.167969 327.84375 669.882812 328.378906 662.496094 C 328.746094 657.460938 325.519531 653.382812 321.609375 653.941406 " fill-opacity="1" fill-rule="nonzero"/><path fill="#1863c2" d="M 310.191406 638.324219 C 304.675781 639.425781 300.964844 648.453125 304.082031 653.1875 C 307.15625 657.855469 313.855469 653.996094 315.109375 646.835938 C 315.957031 641.988281 313.613281 637.929688 310.191406 638.324219 " fill-opacity="1" fill-rule="nonzero"/><path fill="#1863c2" d="M 370.308594 890.765625 C 375.726562 891.894531 377.878906 889.171875 375.835938 886.15625 C 373.878906 883.261719 368.6875 881.039062 364.949219 881.488281 C 364.238281 881.613281 363.566406 881.730469 362.878906 882.203125 C 359.585938 884.46875 363.890625 889.425781 370.308594 890.765625 " fill-opacity="1" fill-rule="nonzero"/><path fill="#1863c2" d="M 251.71875 618.351562 C 251.960938 619.789062 254.835938 617.429688 258.261719 612.980469 C 258.320312 612.90625 264.074219 605.410156 262.988281 604.207031 C 260.714844 603.582031 251.238281 615.480469 251.71875 618.351562 " fill-opacity="1" fill-rule="nonzero"/><path fill="#1863c2" d="M 371.476562 900.226562 C 374.53125 900.1875 375.09375 898.625 372.8125 896.519531 C 371.003906 894.847656 366.714844 892.453125 362.316406 892.703125 C 361.789062 892.757812 360.828125 892.917969 360.328125 893.414062 C 358.148438 895.589844 365.859375 900.300781 371.476562 900.226562 " fill-opacity="1" fill-rule="nonzero"/><path fill="#1863c2" d="M 302.550781 623.082031 C 297.765625 623.554688 293.136719 633.140625 295.675781 637.324219 C 297.761719 640.761719 303.535156 637.855469 305.40625 631.128906 C 306.316406 627.847656 306.308594 623 302.550781 623.082031 " fill-opacity="1" fill-rule="nonzero"/><path fill="#1863c2" d="M 336.554688 669.804688 C 330.109375 670.957031 327.488281 680.800781 332.367188 685.519531 C 336.808594 689.8125 344.925781 686.039062 344.703125 678.003906 C 344.601562 674.320312 342.347656 669.097656 336.554688 669.804688 " fill-opacity="1" fill-rule="nonzero"/><path fill="#1863c2" d="M 390.140625 857.988281 C 389.230469 855.410156 385.535156 851.625 379.511719 852.441406 C 379.082031 852.519531 378.433594 852.671875 377.789062 852.945312 C 372.726562 855.074219 373.710938 861.449219 379.519531 864.125 C 385.660156 866.957031 392.015625 863.285156 390.140625 857.988281 " fill-opacity="1" fill-rule="nonzero"/><path fill="#1863c2" d="M 241.066406 621.984375 C 243.507812 618.429688 246.503906 613.914062 246.90625 612.578125 C 246.890625 612.539062 246.867188 612.480469 246.851562 612.441406 C 245.417969 612.929688 236.808594 625.882812 237.152344 627.027344 C 237.3125 626.972656 237.742188 626.824219 241.066406 621.984375 " fill-opacity="1" fill-rule="nonzero"/><path fill="#1863c2" d="M 253.160156 609.097656 C 253.21875 609.027344 259.097656 601.941406 259.105469 600.609375 C 259.089844 600.589844 259.066406 600.5625 259.046875 600.539062 C 257.382812 600.464844 247.332031 612.890625 248.1875 613.972656 C 248.925781 614.03125 251.617188 610.945312 253.160156 609.097656 " fill-opacity="1" fill-rule="nonzero"/><path fill="#1863c2" d="M 353.109375 907.40625 C 352.726562 907.378906 352.726562 907.378906 352.621094 907.476562 C 353.53125 908.371094 366.414062 911.550781 367.605469 911.179688 C 367.445312 911.089844 367.183594 910.941406 363.542969 909.929688 C 358.300781 908.476562 354.789062 907.628906 353.109375 907.40625 " fill-opacity="1" fill-rule="nonzero"/><path fill="#1863c2" d="M 383.660156 739.535156 C 376.597656 741.175781 374.777344 750.691406 380.613281 755.445312 C 386.882812 760.550781 395.476562 755.488281 394.335938 747.359375 C 393.785156 743.449219 390.109375 738.433594 383.660156 739.535156 " fill-opacity="1" fill-rule="nonzero"/><path fill="#1863c2" d="M 395.375 848.269531 C 395.378906 848.269531 395.378906 848.269531 395.382812 848.269531 C 395.382812 848.269531 395.382812 848.269531 395.386719 848.269531 C 395.386719 848.269531 395.390625 848.269531 395.390625 848.269531 C 395.394531 848.269531 395.394531 848.269531 395.398438 848.269531 C 395.398438 848.269531 395.402344 848.265625 395.402344 848.265625 C 395.40625 848.265625 395.40625 848.265625 395.410156 848.265625 C 395.410156 848.265625 395.410156 848.265625 395.414062 848.265625 C 402.007812 846.617188 400.972656 841.3125 400.832031 840.710938 C 400.144531 837.773438 396.816406 833.773438 390.457031 834.777344 C 387.953125 835.292969 386.609375 836.617188 386.035156 837.363281 C 382.390625 842.058594 387.449219 849.484375 395.371094 848.273438 C 395.371094 848.273438 395.375 848.273438 395.375 848.269531 " fill-opacity="1" fill-rule="nonzero"/><path fill="#1863c2" d="M 298.921875 608.191406 C 295.042969 608.457031 289.71875 617.121094 291.003906 621.0625 C 292.078125 624.347656 297.019531 622.015625 299.710938 615.730469 C 300.9375 612.863281 301.808594 608.277344 298.921875 608.191406 " fill-opacity="1" fill-rule="nonzero"/><path fill="#1863c2" d="M 267.179688 603.972656 C 267.128906 605.625 270.34375 603.386719 274.058594 599.1875 C 275.96875 597.03125 279.613281 592.34375 278.683594 591.648438 C 276.296875 591.402344 267.265625 601.082031 267.179688 603.972656 " fill-opacity="1" fill-rule="nonzero"/><path fill="#1863c2" d="M 374.640625 906.925781 C 375.75 906.59375 375.082031 905.589844 372.933594 904.375 C 371.128906 903.347656 366.734375 901.433594 363.046875 901.519531 C 363.046875 901.519531 363.046875 901.519531 363.042969 901.519531 C 363.039062 901.519531 363.039062 901.519531 363.039062 901.519531 C 363.039062 901.519531 363.035156 901.519531 363.035156 901.519531 C 363.035156 901.519531 363.035156 901.519531 363.03125 901.519531 C 363.03125 901.519531 363.03125 901.519531 363.027344 901.519531 C 363.023438 901.519531 363.023438 901.519531 363.023438 901.519531 C 362.585938 901.566406 361.851562 901.640625 361.605469 902.011719 C 360.367188 903.875 371.210938 907.964844 374.640625 906.925781 " fill-opacity="1" fill-rule="nonzero"/><path fill="#1863c2" d="M 354.550781 685.554688 C 354.550781 685.554688 354.546875 685.554688 354.546875 685.554688 C 354.542969 685.554688 354.542969 685.554688 354.539062 685.554688 C 354.539062 685.554688 354.539062 685.554688 354.535156 685.554688 C 354.535156 685.558594 354.53125 685.558594 354.53125 685.558594 C 354.527344 685.558594 354.527344 685.558594 354.523438 685.558594 C 354.523438 685.558594 354.523438 685.558594 354.519531 685.558594 C 354.519531 685.558594 354.515625 685.5625 354.515625 685.5625 C 354.511719 685.5625 354.511719 685.5625 354.507812 685.5625 C 346.617188 687.6875 346.679688 697.714844 351.472656 701.382812 C 356.917969 705.550781 364.363281 700.703125 363.726562 693.410156 C 363.417969 689.894531 360.65625 684.65625 354.550781 685.554688 " fill-opacity="1" fill-rule="nonzero"/><path fill="#1863c2" d="M 344.433594 905.917969 L 344.9375 906.066406 C 344.566406 905.953125 344.175781 905.839844 343.8125 905.726562 L 344.433594 905.917969 " fill-opacity="1" fill-rule="nonzero"/><path fill="#1863c2" d="M 404.066406 785.9375 C 403.132812 780.964844 398.199219 777.675781 393.289062 778.757812 C 385.34375 780.992188 384.996094 790.480469 390.964844 794.339844 C 397.367188 798.480469 405.445312 793.296875 404.066406 785.9375 " fill-opacity="1" fill-rule="nonzero"/><path fill="#1863c2" d="M 277.003906 605.832031 C 277.40625 607.804688 281.195312 605.226562 284.65625 600.625 C 286.296875 598.445312 289.152344 593.792969 287.5 593.34375 C 284.886719 593.117188 276.3125 602.425781 277.003906 605.832031 " fill-opacity="1" fill-rule="nonzero"/><path fill="#1863c2" d="M 413.242188 821.421875 C 412.804688 817.667969 408.550781 814.128906 403.136719 815.054688 C 396.886719 816.789062 395.105469 823.660156 399.902344 827.515625 C 405.980469 832.398438 413.960938 827.644531 413.242188 821.421875 " fill-opacity="1" fill-rule="nonzero"/><path fill="#1863c2" d="M 379.609375 911.488281 C 380.132812 911.199219 377.785156 910.351562 377.050781 910.097656 C 374.054688 909.0625 369.296875 907.925781 367.253906 907.949219 C 366.953125 907.964844 366.453125 907.996094 366.453125 908.230469 C 366.445312 909.414062 378.128906 912.308594 379.609375 911.488281 " fill-opacity="1" fill-rule="nonzero"/><path fill="#1863c2" d="M 375.15625 701.046875 C 375.15625 701.050781 375.152344 701.050781 375.152344 701.050781 C 375.152344 701.050781 375.148438 701.050781 375.148438 701.050781 C 375.144531 701.050781 375.144531 701.050781 375.140625 701.050781 C 375.140625 701.054688 375.136719 701.054688 375.136719 701.054688 C 375.136719 701.054688 375.132812 701.054688 375.132812 701.054688 C 375.132812 701.054688 375.128906 701.054688 375.128906 701.054688 C 375.125 701.054688 375.125 701.058594 375.121094 701.058594 C 375.121094 701.058594 375.117188 701.058594 375.117188 701.058594 C 368.234375 703.058594 366.800781 712.488281 372.757812 716.582031 C 379 720.871094 385.824219 714.957031 384.84375 708.265625 C 384.320312 704.675781 380.660156 700.171875 375.15625 701.046875 " fill-opacity="1" fill-rule="nonzero"/><path fill="#1863c2" d="M 290.632812 605.882812 C 291.304688 608.164062 295.308594 605.496094 298.152344 600.878906 C 299.46875 598.734375 301.492188 594.226562 299.335938 593.960938 C 295.8125 594.394531 289.707031 602.75 290.632812 605.882812 " fill-opacity="1" fill-rule="nonzero"/><path fill="#1863c2" d="M 261.96875 600.894531 C 261.96875 600.894531 261.972656 600.894531 261.972656 600.894531 C 261.972656 600.894531 261.972656 600.894531 261.972656 600.898438 C 262.820312 601.25 266.722656 597.324219 267.898438 596.113281 C 268.136719 595.867188 273.722656 590.09375 273.449219 589.097656 C 273.421875 589.082031 273.386719 589.058594 273.355469 589.050781 C 272.203125 588.855469 261.171875 598.914062 261.96875 600.894531 " fill-opacity="1" fill-rule="nonzero"/><path fill="#1863c2" d="M 401.511719 881.710938 C 400.605469 879.753906 397.273438 877.285156 392.707031 877.910156 C 392.066406 878.03125 391.417969 878.25 390.933594 878.507812 C 387.527344 880.335938 389.015625 884.449219 393.679688 886.09375 C 398.644531 887.847656 403.183594 885.304688 401.511719 881.710938 " fill-opacity="1" fill-rule="nonzero"/><path fill="#1863c2" d="M 331.3125 648.550781 C 334.925781 652.464844 341.085938 648.421875 341.144531 642.09375 C 341.175781 639.046875 339.382812 634.960938 335.300781 635.429688 C 330.292969 636.363281 327.757812 644.699219 331.3125 648.550781 " fill-opacity="1" fill-rule="nonzero"/><path fill="#1863c2" d="M 390.394531 897.027344 C 394.648438 897.796875 397.207031 895.972656 395.464844 893.410156 C 393.949219 891.175781 389.828125 889.625 386.648438 890.089844 C 386.132812 890.1875 385.273438 890.359375 384.625 890.875 C 382.328125 892.699219 385.5625 896.148438 390.394531 897.027344 " fill-opacity="1" fill-rule="nonzero"/><path fill="#1863c2" d="M 324.097656 621.097656 C 319.0625 622.210938 316.679688 630.601562 319.476562 633.804688 C 322.0625 636.769531 327.496094 633.8125 328.292969 627.753906 C 328.757812 624.199219 327.289062 620.640625 324.097656 621.097656 " fill-opacity="1" fill-rule="nonzero"/><path fill="#1863c2" d="M 410.214844 867.546875 C 409.507812 865.453125 406.625 862.636719 401.585938 863.457031 C 401.347656 863.507812 400.820312 863.648438 400.816406 863.648438 C 395.6875 865.207031 396.269531 870.40625 400.523438 872.617188 C 405.703125 875.316406 411.773438 872.140625 410.214844 867.546875 " fill-opacity="1" fill-rule="nonzero"/><path fill="#1863c2" d="M 316.753906 607.085938 C 312.890625 607.578125 309.082031 615.460938 311.101562 618.800781 C 312.785156 621.585938 317.511719 619.179688 319.074219 613.6875 C 319.855469 610.941406 319.878906 606.917969 316.753906 607.085938 " fill-opacity="1" fill-rule="nonzero"/><path fill="#1863c2" d="M 350.050781 650.109375 C 343.613281 651.789062 343.269531 660.324219 346.976562 663.523438 C 350.824219 666.835938 357.425781 663.519531 357.117188 656.9375 C 356.910156 652.453125 353.738281 649.386719 350.050781 650.109375 " fill-opacity="1" fill-rule="nonzero"/><path fill="#1863c2" d="M 391.105469 905.125 C 393.523438 904.972656 394.003906 903.847656 392.269531 902.390625 C 390.453125 900.863281 386.78125 899.503906 383.78125 899.867188 C 383.324219 899.941406 382.550781 900.066406 382.121094 900.472656 C 380.332031 902.148438 386.628906 905.410156 391.105469 905.125 " fill-opacity="1" fill-rule="nonzero"/><path fill="#1863c2" d="M 393.609375 910.480469 C 394.476562 910.21875 394.011719 909.589844 392.402344 908.84375 C 390.683594 908.050781 387.097656 906.933594 384.257812 907.113281 C 383.820312 907.15625 383.265625 907.261719 383.089844 907.53125 C 382.246094 908.816406 390.996094 911.269531 393.609375 910.480469 " fill-opacity="1" fill-rule="nonzero"/><path fill="#1863c2" d="M 294.277344 591.078125 C 294.589844 592.480469 297.742188 590.390625 300.765625 586.78125 C 303.144531 583.945312 304.894531 580.839844 303.703125 580.738281 C 300.910156 580.984375 293.777344 588.816406 294.277344 591.078125 " fill-opacity="1" fill-rule="nonzero"/><path fill="#1863c2" d="M 375.207031 912.066406 C 374.875 912.0625 374.875 912.0625 374.796875 912.132812 C 375.652344 912.671875 386.722656 914.144531 387.53125 913.820312 C 387.246094 913.75 386.867188 913.691406 383.917969 913.242188 C 379.269531 912.535156 376.710938 912.144531 375.207031 912.066406 " fill-opacity="1" fill-rule="nonzero"/><path fill="#1863c2" d="M 313.964844 599.65625 C 315.316406 596.644531 315.453125 593.390625 313.480469 593.542969 C 309.992188 594.183594 305.632812 601.472656 307.003906 604.375 C 308.117188 606.726562 311.957031 604.125 313.964844 599.65625 " fill-opacity="1" fill-rule="nonzero"/><path fill="#1863c2" d="M 277.863281 587.988281 C 277.691406 588.949219 280.28125 587.269531 283.886719 584.085938 C 283.945312 584.035156 289.898438 578.722656 289.46875 578.019531 C 287.871094 577.726562 278.21875 586.015625 277.863281 587.988281 " fill-opacity="1" fill-rule="nonzero"/><path fill="#1863c2" d="M 407.382812 755.605469 C 399.878906 757.867188 400.179688 766.539062 404.613281 770.101562 C 409.789062 774.265625 418.328125 770.441406 417.226562 762.65625 C 416.511719 757.613281 412.09375 754.449219 407.382812 755.605469 " fill-opacity="1" fill-rule="nonzero"/><path fill="#1863c2" d="M 295.144531 579.820312 C 292.839844 579.773438 284.066406 588.113281 284.230469 590.191406 C 284.3125 591.273438 286.898438 589.910156 290.925781 585.820312 C 291.144531 585.601562 296.273438 580.375 295.144531 579.820312 " fill-opacity="1" fill-rule="nonzero"/><path fill="#1863c2" d="M 416.976562 793.832031 C 410.230469 795.542969 409.433594 803.515625 414.207031 806.894531 C 419.539062 810.667969 427.257812 806.175781 426.347656 799.820312 C 425.921875 796.863281 423.007812 792.621094 416.976562 793.832031 " fill-opacity="1" fill-rule="nonzero"/><path fill="#1863c2" d="M 259.289062 596.230469 C 259.304688 596.199219 259.304688 596.144531 259.304688 596.109375 C 258.222656 596.59375 249.492188 606.921875 249.472656 607.742188 C 249.71875 607.589844 250.371094 606.898438 253.230469 603.566406 C 257.914062 598.109375 258.914062 596.851562 259.289062 596.230469 " fill-opacity="1" fill-rule="nonzero"/><path fill="#1863c2" d="M 397.640625 716.644531 C 390.082031 718.945312 390.710938 727.960938 395.582031 731.203125 C 401.21875 734.949219 408.238281 730.179688 407.140625 723.347656 C 406.386719 718.640625 402.035156 715.570312 397.640625 716.644531 " fill-opacity="1" fill-rule="nonzero"/><path fill="#1863c2" d="M 367.910156 664.714844 C 361.59375 666.523438 361.058594 674.890625 365.667969 678.234375 C 370.488281 681.730469 376.796875 677.269531 375.890625 671.003906 C 375.476562 668.132812 372.945312 663.882812 367.910156 664.714844 " fill-opacity="1" fill-rule="nonzero"/><path fill="#1863c2" d="M 421.207031 851.3125 C 420.625 848.457031 417.457031 845.890625 412.726562 846.753906 C 406.902344 848.105469 406.289062 853.886719 410.277344 856.640625 C 415.105469 859.96875 422.257812 856.484375 421.207031 851.3125 " fill-opacity="1" fill-rule="nonzero"/><path fill="#1863c2" d="M 265.636719 592.230469 C 265.695312 592.175781 271.460938 586.625 271.839844 585.652344 C 271.839844 585.652344 271.839844 585.652344 271.820312 585.597656 C 270.582031 585.550781 260.765625 595.121094 260.992188 596.152344 C 261.429688 596.195312 264.09375 593.710938 265.636719 592.230469 " fill-opacity="1" fill-rule="nonzero"/><path fill="#1863c2" d="M 386.738281 692.507812 C 392.164062 696.058594 397.800781 690.953125 396.785156 685.292969 C 396.253906 682.34375 393.210938 678.410156 388.371094 679.328125 C 383.109375 680.664062 381.230469 688.898438 386.738281 692.507812 " fill-opacity="1" fill-rule="nonzero"/><path fill="#1863c2" d="M 433.789062 832.75 C 433.394531 829.773438 430.171875 827.128906 425.652344 828.03125 C 420.773438 829.261719 418.273438 835.164062 422.65625 838.445312 C 427.699219 842.214844 434.457031 837.835938 433.789062 832.75 " fill-opacity="1" fill-rule="nonzero"/><path fill="#1863c2" d="M 388.351562 911.902344 C 387.875 911.945312 387.738281 911.984375 387.695312 912.109375 C 388.144531 912.996094 397.074219 913.96875 398.214844 913.535156 C 398.21875 913.511719 398.226562 913.480469 398.230469 913.457031 C 398.136719 913.390625 397.890625 913.210938 395.710938 912.777344 C 394.898438 912.617188 390.722656 911.816406 388.351562 911.902344 " fill-opacity="1" fill-rule="nonzero"/><path fill="#1863c2" d="M 306.964844 590.203125 C 307.273438 592.015625 310.316406 590.398438 313.007812 586.261719 C 314.71875 583.632812 315.679688 580.824219 314.25 580.871094 C 311.664062 581.265625 306.554688 587.804688 306.964844 590.203125 " fill-opacity="1" fill-rule="nonzero"/><path fill="#1863c2" d="M 280.34375 581.273438 C 282.5625 579.480469 286.3125 576.367188 286.480469 575.671875 C 285.800781 575.0625 275.597656 583.300781 275.453125 584.578125 C 275.542969 584.667969 275.808594 584.933594 280.34375 581.273438 " fill-opacity="1" fill-rule="nonzero"/><path fill="#1863c2" d="M 344.882812 628.375 C 347.636719 631.023438 352.484375 628.394531 352.339844 623.152344 C 352.285156 621.109375 351.203125 617.378906 347.503906 617.90625 C 343.269531 618.800781 342.113281 625.71875 344.882812 628.375 " fill-opacity="1" fill-rule="nonzero"/><path fill="#1863c2" d="M 412.679688 886.113281 C 412.40625 886.179688 412.042969 886.265625 411.777344 886.363281 C 408.464844 887.550781 409.199219 890.605469 412.148438 891.9375 C 415.527344 893.457031 420.320312 891.863281 419.222656 888.839844 C 418.695312 887.398438 416.523438 885.484375 412.679688 886.113281 " fill-opacity="1" fill-rule="nonzero"/><path fill="#1863c2" d="M 339.96875 610.070312 C 340.269531 607.167969 339.070312 604.421875 336.550781 604.839844 C 332.652344 605.789062 330.996094 612.269531 333.210938 614.800781 C 335.289062 617.179688 339.46875 614.875 339.96875 610.070312 " fill-opacity="1" fill-rule="nonzero"/><path fill="#1863c2" d="M 408.292969 901.664062 C 411.445312 902.246094 414.238281 901.070312 412.886719 899.023438 C 411.789062 897.359375 408.921875 896.40625 406.359375 896.851562 C 405.949219 896.9375 405.253906 897.085938 404.722656 897.464844 C 402.949219 898.722656 404.921875 901.039062 408.292969 901.664062 " fill-opacity="1" fill-rule="nonzero"/><path fill="#1863c2" d="M 428.234375 875.894531 C 427.84375 874.277344 425.785156 872.144531 421.734375 872.902344 C 416.9375 874.179688 417.179688 878.132812 420.046875 879.796875 C 423.828125 881.996094 429.109375 879.476562 428.234375 875.894531 " fill-opacity="1" fill-rule="nonzero"/><path fill="#1863c2" d="M 421.335938 732.050781 C 414.765625 733.882812 415.074219 741.988281 419.1875 745.046875 C 423.84375 748.507812 431.308594 744.613281 430 737.789062 C 429.507812 735.246094 427.070312 730.773438 421.335938 732.050781 " fill-opacity="1" fill-rule="nonzero"/><path fill="#1863c2" d="M 311.765625 568.78125 C 309.78125 568.890625 302.074219 575.433594 302.0625 577.019531 C 302.058594 577.816406 304.144531 576.769531 307.644531 573.636719 C 307.695312 573.589844 312.679688 569.113281 311.765625 568.78125 " fill-opacity="1" fill-rule="nonzero"/><path fill="#1863c2" d="M 295.457031 575.8125 C 295.394531 576.476562 297.621094 575.179688 301 572.578125 C 301.539062 572.164062 306.28125 568.503906 306.34375 567.769531 C 306.328125 567.757812 306.308594 567.738281 306.292969 567.722656 C 304.796875 567.628906 295.582031 574.507812 295.457031 575.8125 " fill-opacity="1" fill-rule="nonzero"/><path fill="#1863c2" d="M 428.769531 783.679688 C 433.25 786.960938 440.691406 783.335938 439.761719 776.804688 C 439.402344 774.273438 437.167969 769.832031 431.285156 771.148438 C 424.136719 773.484375 425.222656 781.082031 428.769531 783.679688 " fill-opacity="1" fill-rule="nonzero"/><path fill="#1863c2" d="M 360.132812 641.992188 C 363.753906 644.972656 368.695312 641.417969 368.023438 636.316406 C 367.722656 634.015625 365.835938 630.59375 362.066406 631.222656 C 357.792969 632.210938 356.566406 639.058594 360.132812 641.992188 " fill-opacity="1" fill-rule="nonzero"/><path fill="#1863c2" d="M 447.300781 811.996094 C 446.84375 808.722656 443.246094 806.59375 439.75 807.523438 C 434.5625 809.207031 432.890625 815.140625 436.769531 818.101562 C 441.511719 821.71875 448.003906 817.035156 447.300781 811.996094 " fill-opacity="1" fill-rule="nonzero"/><path fill="#1863c2" d="M 408.929688 908.328125 C 410.433594 908.070312 410.636719 907.289062 409.425781 906.425781 C 408.429688 905.714844 405.859375 904.707031 403.195312 905.03125 C 402.324219 905.167969 401.960938 905.433594 401.804688 905.632812 C 400.765625 906.976562 405.757812 908.867188 408.929688 908.328125 " fill-opacity="1" fill-rule="nonzero"/><path fill="#1863c2" d="M 325.316406 601.261719 C 326.683594 603.613281 330.226562 601.289062 331.332031 597.308594 C 332.070312 594.664062 331.496094 591.898438 329.496094 592.167969 C 326.457031 592.871094 323.800781 598.648438 325.316406 601.261719 " fill-opacity="1" fill-rule="nonzero"/><path fill="#1863c2" d="M 433.136719 857.316406 C 429.136719 858.507812 427.574219 862.449219 430.199219 864.714844 C 433.902344 867.90625 439.816406 864.773438 439.546875 860.84375 C 439.371094 858.320312 436.199219 856.574219 433.136719 857.316406 " fill-opacity="1" fill-rule="nonzero"/><path fill="#1863c2" d="M 382.691406 656.386719 C 382.695312 656.386719 382.695312 656.386719 382.695312 656.386719 C 382.695312 656.386719 382.695312 656.386719 382.699219 656.386719 C 382.703125 656.386719 382.703125 656.386719 382.703125 656.382812 C 382.703125 656.386719 382.703125 656.382812 382.703125 656.382812 C 382.703125 656.382812 382.707031 656.382812 382.707031 656.382812 C 382.707031 656.382812 382.707031 656.382812 382.710938 656.382812 C 382.710938 656.382812 382.710938 656.378906 382.710938 656.378906 C 386.117188 655.277344 386.882812 651.84375 386.566406 649.808594 C 386.042969 646.445312 382.75 643.945312 379.789062 644.65625 C 379.1875 644.847656 377.9375 645.246094 376.90625 646.863281 C 374.023438 651.359375 377.648438 657.324219 382.691406 656.386719 " fill-opacity="1" fill-rule="nonzero"/><path fill="#1863c2" d="M 409.015625 705.925781 C 414.25 709.871094 420.0625 705.078125 419.03125 699.480469 C 418.414062 696.140625 415.105469 693.078125 410.832031 693.953125 C 405.65625 695.664062 404.605469 702.601562 409.015625 705.925781 " fill-opacity="1" fill-rule="nonzero"/><path fill="#1863c2" d="M 291.953125 573.65625 C 292.421875 573.800781 295.695312 571.617188 297.082031 570.671875 C 297.140625 570.628906 302.875 566.699219 303.03125 566.085938 C 301.921875 565.816406 291.878906 572.675781 291.953125 573.65625 " fill-opacity="1" fill-rule="nonzero"/><path fill="#1863c2" d="M 326.554688 580.128906 C 324.265625 580.632812 320.757812 585.941406 321.660156 588.3125 C 322.457031 590.410156 325.597656 587.695312 326.96875 584.402344 C 327.851562 582.277344 327.863281 579.996094 326.554688 580.128906 " fill-opacity="1" fill-rule="nonzero"/><path fill="#1863c2" d="M 319.121094 569.136719 C 317.53125 569.175781 311.167969 575.167969 311.207031 577.109375 C 311.230469 578.347656 314.074219 576.257812 316.417969 573.695312 C 317.800781 572.179688 320.019531 569.285156 319.121094 569.136719 " fill-opacity="1" fill-rule="nonzero"/><path fill="#1863c2" d="M 409.433594 911.355469 C 407.875 910.847656 404.976562 910.417969 403.429688 910.605469 C 403.148438 910.652344 402.671875 910.726562 402.601562 910.957031 C 402.269531 912.003906 409.1875 912.808594 410.457031 912.226562 C 410.96875 911.992188 410.261719 911.625 409.433594 911.355469 " fill-opacity="1" fill-rule="nonzero"/><path fill="#1863c2" d="M 273.617188 581.585938 C 273.632812 581.5625 273.652344 581.527344 273.664062 581.503906 C 273 581.796875 264.828125 589.285156 264.402344 590.203125 C 264.554688 590.09375 264.554688 590.09375 267.929688 586.953125 C 272.246094 582.933594 273.273438 581.980469 273.617188 581.585938 " fill-opacity="1" fill-rule="nonzero"/><path fill="#1863c2" d="M 280.394531 577.488281 C 285.707031 573.4375 286.109375 572.96875 286.398438 572.625 C 285.832031 572.320312 276.699219 579.308594 276.625 580.105469 C 276.714844 580.113281 276.925781 580.128906 280.394531 577.488281 " fill-opacity="1" fill-rule="nonzero"/><path fill="#1863c2" d="M 313.90625 564.425781 C 314.128906 564.703125 315.53125 563.933594 318.910156 561.675781 C 319.625 561.199219 323.203125 558.789062 323.367188 558.335938 C 323.355469 558.324219 323.34375 558.316406 323.335938 558.308594 C 322.664062 558.21875 314.035156 563.277344 313.90625 564.425781 " fill-opacity="1" fill-rule="nonzero"/><path fill="#1863c2" d="M 452.261719 843.5 C 452.261719 843.445312 451.996094 838.316406 446.320312 839.84375 C 439.785156 841.84375 442.617188 847.070312 443.234375 847.699219 C 445.34375 849.863281 451.96875 848.714844 452.261719 843.5 " fill-opacity="1" fill-rule="nonzero"/><path fill="#1863c2" d="M 327.648438 569.066406 C 325.90625 569.414062 321.980469 574.304688 322.191406 575.859375 C 322.351562 577.039062 324.59375 575.757812 326.46875 572.996094 C 326.925781 572.324219 329.121094 568.988281 327.648438 569.066406 " fill-opacity="1" fill-rule="nonzero"/><path fill="#1863c2" d="M 412.628906 913.621094 C 409.71875 913.496094 408.410156 913.480469 407.453125 913.558594 C 406.960938 913.609375 406.941406 913.640625 406.914062 913.695312 C 407.5625 914.070312 413.660156 913.976562 414.542969 913.757812 C 414.488281 913.71875 414.464844 913.699219 412.628906 913.621094 " fill-opacity="1" fill-rule="nonzero"/><path fill="#1863c2" d="M 451.828125 795.675781 C 452.699219 796.328125 455.097656 797.609375 458.511719 795.363281 C 459.628906 794.625 461.4375 792.902344 460.976562 789.648438 C 460.367188 785.386719 456.9375 784.808594 454.183594 785.605469 C 448.632812 787.554688 449.207031 793.707031 451.828125 795.675781 " fill-opacity="1" fill-rule="nonzero"/><path fill="#1863c2" d="M 443.230469 758.632812 C 445.949219 760.886719 453.539062 759.601562 452.78125 752.300781 C 452.773438 752.234375 451.800781 745.683594 445.425781 747.3125 C 438.617188 749.359375 440.949219 756.742188 443.230469 758.632812 " fill-opacity="1" fill-rule="nonzero"/><path fill="#1863c2" d="M 433.179688 719.496094 C 433.703125 719.855469 436.476562 721.527344 439.636719 719.335938 C 441.019531 718.378906 442.527344 716.585938 441.859375 713.484375 C 440.988281 709.457031 438.105469 707.628906 434.335938 708.714844 C 428.800781 710.699219 430.046875 717.363281 433.179688 719.496094 " fill-opacity="1" fill-rule="nonzero"/><path fill="#1863c2" d="M 399.460938 668.65625 C 402.613281 670.496094 408.261719 668.792969 407.042969 663.132812 C 406.410156 660.195312 403.921875 657.625 400.386719 658.390625 C 394.828125 659.949219 396.273438 666.800781 399.460938 668.65625 " fill-opacity="1" fill-rule="nonzero"/><path fill="#1863c2" d="M 301.53125 564.160156 C 301.535156 564.144531 301.511719 564.132812 301.503906 564.121094 C 300.59375 564.144531 292.738281 568.9375 291.648438 570.359375 C 292.125 570.296875 293.25 569.664062 296.113281 567.851562 C 300.171875 565.285156 301.386719 564.453125 301.53125 564.160156 " fill-opacity="1" fill-rule="nonzero"/><path fill="#1863c2" d="M 423.25 901.894531 C 422.945312 901.96875 422.433594 902.085938 422.0625 902.34375 C 421.144531 902.988281 421.460938 904.332031 423.78125 904.863281 C 425.765625 905.320312 428.476562 904.585938 427.558594 903.097656 C 426.996094 902.183594 425.445312 901.457031 423.25 901.894531 " fill-opacity="1" fill-rule="nonzero"/><path fill="#1863c2" d="M 319.785156 565.082031 C 320.53125 564.8125 321.546875 564.300781 323.9375 562.386719 C 325.894531 560.820312 328.128906 558.933594 327.675781 558.824219 C 327.675781 558.824219 327.671875 558.824219 327.667969 558.824219 C 326.6875 558.878906 318.957031 564.277344 319.785156 565.082031 " fill-opacity="1" fill-rule="nonzero"/><path fill="#1863c2" d="M 310.214844 563.238281 C 311.039062 563.011719 312.363281 562.324219 315.277344 560.617188 C 320.191406 557.738281 320.25 557.574219 320.304688 557.417969 L 320.304688 557.414062 C 319.582031 557.3125 310.789062 562.097656 310.214844 563.238281 " fill-opacity="1" fill-rule="nonzero"/><path fill="#1863c2" d="M 429.886719 892.707031 C 429.734375 892.742188 429.585938 892.785156 429.433594 892.832031 C 427.472656 893.4375 426.445312 895.445312 428.941406 896.664062 C 431.140625 897.742188 434.851562 896.445312 434.175781 894.34375 C 434.050781 893.953125 433.257812 892.046875 429.886719 892.707031 " fill-opacity="1" fill-rule="nonzero"/><path fill="#1863c2" d="M 344.9375 596.984375 C 346.027344 598.390625 349.292969 597.949219 349.671875 593.523438 C 349.671875 593.480469 349.652344 589.570312 347.054688 589.9375 C 344.09375 590.570312 343.699219 595.386719 344.9375 596.984375 " fill-opacity="1" fill-rule="nonzero"/><path fill="#1863c2" d="M 356.417969 609.210938 C 356.433594 609.222656 358.097656 610.605469 359.660156 609.503906 C 360.21875 609.109375 361.710938 608.058594 361.546875 605.597656 C 361.535156 605.410156 361.207031 601.035156 357.8125 601.613281 C 354.492188 602.394531 354.410156 607.515625 356.417969 609.210938 " fill-opacity="1" fill-rule="nonzero"/><path fill="#1863c2" d="M 439.175781 881.023438 C 435.871094 881.953125 435.730469 884.539062 437.386719 885.738281 C 439.242188 887.078125 443.8125 885.863281 443.433594 882.949219 C 443.199219 881.171875 441.570312 880.433594 439.175781 881.023438 " fill-opacity="1" fill-rule="nonzero"/><path fill="#1863c2" d="M 421.960938 681.496094 C 424.503906 683.117188 430.15625 682.039062 429.179688 676.261719 C 429.019531 675.3125 427.226562 670.777344 422.570312 672.121094 C 417.203125 673.964844 419.738281 680.082031 421.960938 681.496094 " fill-opacity="1" fill-rule="nonzero"/><path fill="#1863c2" d="M 460.71875 820.242188 C 455.285156 822.066406 456.675781 826.753906 457.535156 827.847656 C 459.558594 830.425781 465.800781 828.84375 466.125 823.691406 C 466.175781 822.894531 465.394531 818.878906 460.71875 820.242188 " fill-opacity="1" fill-rule="nonzero"/><path fill="#1863c2" d="M 284.265625 572.640625 C 288.582031 569.464844 288.582031 569.464844 288.847656 569.234375 C 288.871094 569.207031 288.90625 569.175781 288.921875 569.140625 C 288.230469 569.433594 282.019531 574.0625 281.535156 574.644531 C 282.5 574.050781 283.355469 573.308594 284.265625 572.640625 " fill-opacity="1" fill-rule="nonzero"/><path fill="#1863c2" d="M 318.367188 556.308594 C 318.035156 556.128906 310.136719 559.988281 309.207031 561.015625 C 309.460938 561.09375 310.667969 560.496094 313.464844 559.042969 C 317.382812 557.003906 318.253906 556.519531 318.367188 556.308594 " fill-opacity="1" fill-rule="nonzero"/><path fill="#1863c2" d="M 423.101562 910.078125 C 424.410156 909.898438 424.667969 909.558594 423.917969 909.011719 C 423.902344 909 422.261719 907.984375 419.914062 908.398438 C 419.632812 908.453125 419.046875 908.570312 418.863281 908.820312 C 418.414062 909.421875 420.804688 910.402344 423.101562 910.078125 " fill-opacity="1" fill-rule="nonzero"/><path fill="#1863c2" d="M 341.5625 582.101562 C 341.84375 580.527344 341.84375 578.691406 340.234375 578.882812 C 337.78125 579.351562 336.808594 584.027344 337.699219 585.179688 C 338.539062 586.261719 340.953125 585.484375 341.5625 582.101562 " fill-opacity="1" fill-rule="nonzero"/><path fill="#1863c2" d="M 454.945312 869.035156 C 454.90625 867.863281 454.335938 866.015625 450.988281 866.828125 C 446.101562 868.332031 448.105469 871.726562 448.554688 872.128906 C 450.183594 873.601562 455.054688 872.246094 454.945312 869.035156 " fill-opacity="1" fill-rule="nonzero"/><path fill="#1863c2" d="M 330.757812 561.953125 C 330.851562 561.855469 330.980469 561.726562 331.074219 561.625 C 333.324219 559.292969 333.191406 559.03125 332.894531 559.039062 C 331.734375 559.21875 327.253906 563.367188 327.183594 564.320312 C 327.15625 564.746094 328.011719 564.75 330.757812 561.953125 " fill-opacity="1" fill-rule="nonzero"/><path fill="#1863c2" d="M 371.484375 621.523438 C 373.59375 622.917969 377.605469 621.59375 376.734375 617.386719 C 376.28125 615.195312 374.851562 613.082031 372.199219 613.730469 C 368.167969 614.933594 369.5625 620.253906 371.484375 621.523438 " fill-opacity="1" fill-rule="nonzero"/><path fill="#1863c2" d="M 389.59375 633.652344 C 392.121094 635.132812 395.960938 633.296875 394.804688 629.410156 C 394.335938 627.835938 393.074219 625.300781 389.886719 626.023438 C 385.765625 627.167969 387.527344 632.4375 389.59375 633.652344 " fill-opacity="1" fill-rule="nonzero"/><path fill="#1863c2" d="M 457.101562 732.078125 C 459.371094 734.152344 465.171875 733.46875 464.667969 726.945312 C 464.527344 725.105469 462.300781 723.609375 462.273438 723.59375 C 460.847656 722.703125 459.496094 723.074219 458.773438 723.273438 C 453.777344 724.914062 455.1875 730.328125 457.101562 732.078125 " fill-opacity="1" fill-rule="nonzero"/><path fill="#1863c2" d="M 419.980469 912.105469 C 419.78125 912.140625 419.367188 912.210938 419.378906 912.316406 C 419.390625 912.464844 420.34375 912.632812 421.855469 912.644531 C 422.597656 912.652344 424.339844 912.546875 424.421875 912.351562 C 424.375 912.308594 424.292969 912.269531 423.710938 912.171875 C 423.691406 912.167969 421.59375 911.863281 419.980469 912.105469 " fill-opacity="1" fill-rule="nonzero"/><path fill="#1863c2" d="M 334.476562 573.640625 C 334.578125 573.925781 334.914062 574.519531 335.824219 573.84375 C 336.332031 573.472656 337.078125 572.792969 337.699219 571.253906 C 338.144531 570.148438 338.71875 568.3125 337.578125 568.398438 C 336.050781 568.644531 334.042969 572.421875 334.476562 573.640625 " fill-opacity="1" fill-rule="nonzero"/><path fill="#1863c2" d="M 466.972656 771.050781 C 468.222656 771.925781 470.707031 771.96875 471.582031 771.359375 C 472.394531 770.792969 474.878906 769.0625 474.371094 765.894531 C 473.960938 763.347656 472.082031 761.242188 468.800781 762.292969 C 463.621094 764.199219 465.113281 769.753906 466.972656 771.050781 " fill-opacity="1" fill-rule="nonzero"/><path fill="#1863c2" d="M 297.566406 564.582031 C 297.605469 564.558594 301.691406 562.175781 302.148438 561.746094 C 302.148438 561.734375 302.148438 561.71875 302.148438 561.703125 C 301.476562 561.820312 295.300781 565.394531 294.480469 566.253906 C 294.484375 566.265625 294.488281 566.28125 294.488281 566.289062 C 294.746094 566.21875 295.496094 565.789062 297.566406 564.582031 " fill-opacity="1" fill-rule="nonzero"/><path fill="#1863c2" d="M 475.796875 799.058594 C 471.9375 800.328125 471.582031 804.308594 473.40625 806.136719 C 475.429688 808.167969 480.25 805.996094 480.1875 802.261719 C 480.171875 801.519531 479.898438 797.890625 475.796875 799.058594 " fill-opacity="1" fill-rule="nonzero"/><path fill="#1863c2" d="M 468.070312 852.640625 C 468.082031 851.683594 467.753906 849.546875 464.550781 850.386719 C 460.808594 851.519531 460.902344 854.695312 461.945312 855.792969 C 463.535156 857.464844 468.042969 855.632812 468.070312 852.640625 " fill-opacity="1" fill-rule="nonzero"/><path fill="#1863c2" d="M 445.921875 693.765625 C 448.550781 695.4375 453.09375 693.386719 451.949219 689.257812 C 451.65625 688.191406 450.386719 684.796875 446.5 685.878906 C 442.113281 687.335938 443.753906 692.390625 445.921875 693.765625 " fill-opacity="1" fill-rule="nonzero"/><path fill="#1863c2" d="M 410.117188 645.453125 C 412.011719 646.65625 416.128906 645.898438 415.132812 641.710938 C 415.125 641.667969 413.957031 637.496094 410.238281 638.585938 C 406.152344 639.984375 408.65625 644.527344 410.117188 645.453125 " fill-opacity="1" fill-rule="nonzero"/><path fill="#1863c2" d="M 338.109375 561.25 C 338.285156 561.007812 339.808594 558.910156 339.066406 558.910156 C 337.96875 559.140625 335.664062 562.289062 335.707031 562.984375 C 335.707031 562.996094 336.03125 564.074219 338.109375 561.25 " fill-opacity="1" fill-rule="nonzero"/><path fill="#1863c2" d="M 436.910156 905.390625 C 436.796875 905.414062 436.679688 905.445312 436.566406 905.484375 C 435.523438 905.835938 435.785156 906.378906 436.289062 906.632812 C 437.117188 907.046875 439.15625 906.710938 438.863281 905.824219 C 438.859375 905.816406 438.425781 905.082031 436.910156 905.390625 " fill-opacity="1" fill-rule="nonzero"/><path fill="#1863c2" d="M 479.113281 832.050781 C 477.121094 832.78125 475.71875 835.25 477.011719 836.777344 C 478.324219 838.332031 481.875 836.882812 482.132812 834.089844 C 482.328125 831.960938 480.757812 831.53125 479.113281 832.050781 " fill-opacity="1" fill-rule="nonzero"/><path fill="#1863c2" d="M 432.933594 657.074219 C 435.339844 658.265625 438.035156 656.375 436.910156 653.457031 C 436.179688 651.554688 434.496094 650.660156 432.71875 651.226562 C 429.488281 652.441406 431.1875 656.207031 432.933594 657.074219 " fill-opacity="1" fill-rule="nonzero"/><path fill="#1863c2" d="M 443.785156 897.976562 C 442.242188 898.363281 441.996094 899.332031 442.503906 899.828125 C 443.390625 900.691406 445.828125 899.929688 445.769531 898.8125 C 445.746094 898.34375 445.300781 897.640625 443.785156 897.976562 " fill-opacity="1" fill-rule="nonzero"/><path fill="#1863c2" d="M 481.664062 744.472656 C 483.171875 745.59375 486.722656 744.3125 486.203125 741.054688 C 485.945312 739.425781 485.101562 737.652344 482.554688 738.4375 C 479.242188 739.621094 480.246094 743.410156 481.664062 744.472656 " fill-opacity="1" fill-rule="nonzero"/><path fill="#1863c2" d="M 490.667969 776.675781 C 487.484375 777.808594 488.222656 781.289062 489.304688 782.070312 C 489.316406 782.082031 490.695312 783.007812 492.394531 781.753906 C 492.773438 781.472656 493.933594 780.617188 493.753906 778.78125 C 493.640625 777.667969 493.097656 775.914062 490.667969 776.675781 " fill-opacity="1" fill-rule="nonzero"/><path fill="#1863c2" d="M 453.332031 887.960938 C 450.960938 888.671875 451.886719 890.269531 451.898438 890.285156 C 452.507812 891.050781 455.125 890.464844 455.269531 888.914062 C 455.308594 888.460938 455.207031 887.460938 453.332031 887.960938 " fill-opacity="1" fill-rule="nonzero"/><path fill="#1863c2" d="M 380.222656 602.101562 C 381.273438 602.703125 383.46875 602.097656 382.734375 599.8125 C 382.5 599.082031 381.777344 597.429688 380.089844 597.882812 C 377.808594 598.621094 379.214844 601.527344 380.222656 602.101562 " fill-opacity="1" fill-rule="nonzero"/><path fill="#1863c2" d="M 435.015625 910.066406 C 434.816406 909.96875 434.246094 909.773438 433.25 909.972656 C 433.085938 910.007812 432.753906 910.082031 432.695312 910.195312 C 432.539062 910.480469 434.070312 910.648438 434.933594 910.351562 C 435.203125 910.261719 435.230469 910.167969 435.015625 910.066406 " fill-opacity="1" fill-rule="nonzero"/><path fill="#1863c2" d="M 365.414062 591.246094 C 366.167969 591.886719 368.25 591.8125 367.953125 589.3125 C 367.949219 589.285156 367.539062 586.839844 365.707031 587.277344 C 363.910156 587.820312 364.546875 590.507812 365.414062 591.246094 " fill-opacity="1" fill-rule="nonzero"/><path fill="#1863c2" d="M 349.21875 569.207031 C 349.3125 568.628906 349.429688 567.296875 348.535156 567.421875 C 347.382812 567.667969 347.113281 570.019531 347.5625 570.542969 C 347.972656 571.027344 348.976562 570.722656 349.21875 569.207031 " fill-opacity="1" fill-rule="nonzero"/><path fill="#1863c2" d="M 354.53125 580.753906 C 354.761719 580.949219 355.367188 581.324219 356.074219 580.683594 C 356.371094 580.414062 356.710938 579.875 356.628906 578.855469 C 356.59375 578.363281 356.367188 576.773438 355.125 577.042969 C 353.507812 577.5 353.824219 580.160156 354.53125 580.753906 " fill-opacity="1" fill-rule="nonzero"/><path fill="#1863c2" d="M 470.535156 705.605469 C 471.832031 706.375 475.324219 705.777344 474.550781 702.195312 C 474.542969 702.164062 473.75 699.117188 470.902344 699.988281 C 467.664062 701.144531 469.203125 704.816406 470.535156 705.605469 " fill-opacity="1" fill-rule="nonzero"/><path fill="#1863c2" d="M 398.265625 612.808594 C 399.507812 613.273438 399.835938 612.90625 400.257812 612.445312 C 400.464844 612.214844 400.894531 611.554688 400.421875 610.417969 C 399.898438 609.167969 398.761719 608.515625 397.652344 608.835938 C 397.597656 608.855469 397.527344 608.875 397.472656 608.898438 C 396 609.523438 396.53125 612.15625 398.265625 612.808594 " fill-opacity="1" fill-rule="nonzero"/><path fill="#1863c2" d="M 465.460938 875.210938 C 463.804688 875.714844 463.289062 877.082031 463.753906 877.757812 C 464.195312 878.402344 465.507812 878.078125 465.523438 878.074219 C 465.535156 878.066406 466.914062 877.335938 467.109375 876.398438 C 467.207031 875.953125 467.101562 874.78125 465.460938 875.210938 " fill-opacity="1" fill-rule="nonzero"/><path fill="#1863c2" d="M 479.210938 860.214844 C 477.527344 860.808594 477.644531 862.246094 477.867188 862.546875 C 478.339844 863.175781 480.242188 862.589844 480.53125 861.246094 C 480.585938 860.984375 480.785156 859.710938 479.210938 860.214844 " fill-opacity="1" fill-rule="nonzero"/><g clip-path="url(#9a39dd21ef)"><path fill="#1863c2" d="M 494.476562 811.960938 C 492.765625 812.570312 492.410156 814.617188 493.175781 815.460938 C 494.019531 816.394531 496.445312 815.199219 496.523438 813.410156 C 496.558594 812.613281 496.335938 811.359375 494.476562 811.960938 " fill-opacity="1" fill-rule="nonzero"/></g><path fill="#1863c2" d="M 456.882812 668.191406 C 458.109375 668.804688 460.332031 667.832031 459.523438 665.761719 C 459.214844 664.957031 458.449219 663.683594 456.820312 664.183594 C 454.433594 665.039062 455.832031 667.664062 456.882812 668.191406 " fill-opacity="1" fill-rule="nonzero"/><path fill="#1863c2" d="M 418.675781 623.175781 C 418.765625 623.207031 419.546875 623.496094 420.074219 622.992188 C 420.503906 622.578125 420.605469 622.089844 420.378906 621.539062 C 420.375 621.519531 419.679688 619.867188 418.253906 620.253906 C 418.183594 620.273438 418.117188 620.300781 418.046875 620.332031 C 416.714844 620.957031 417.679688 622.777344 418.675781 623.175781 " fill-opacity="1" fill-rule="nonzero"/><g fill="#0b0f8f" fill-opacity="1"><g transform="translate(522.363396, 711.218295)"><g><path d="M 9.25 0 L 9.25 -87.515625 L 19.75 -87.515625 L 66.390625 -17.375 L 66.390625 -87.515625 L 76.890625 -87.515625 L 76.890625 0 L 66.390625 0 L 19.75 -70.140625 L 19.75 0 Z M 9.25 0 "/></g></g></g><g fill="#0b0f8f" fill-opacity="1"><g transform="translate(608.499154, 711.218295)"><g><path d="M 29.25 1.5 C 24.082031 1.5 19.789062 0.625 16.375 -1.125 C 12.957031 -2.875 10.414062 -5.207031 8.75 -8.125 C 7.082031 -11.039062 6.25 -14.207031 6.25 -17.625 C 6.25 -23.957031 8.664062 -28.832031 13.5 -32.25 C 18.332031 -35.664062 24.914062 -37.375 33.25 -37.375 L 50 -37.375 L 50 -38.125 C 50 -43.539062 48.582031 -47.644531 45.75 -50.4375 C 42.914062 -53.226562 39.125 -54.625 34.375 -54.625 C 30.289062 -54.625 26.769531 -53.601562 23.8125 -51.5625 C 20.851562 -49.519531 19 -46.539062 18.25 -42.625 L 7.5 -42.625 C 7.914062 -47.125 9.4375 -50.914062 12.0625 -54 C 14.6875 -57.082031 17.957031 -59.4375 21.875 -61.0625 C 25.789062 -62.695312 29.957031 -63.515625 34.375 -63.515625 C 43.039062 -63.515625 49.5625 -61.195312 53.9375 -56.5625 C 58.3125 -51.9375 60.5 -45.789062 60.5 -38.125 L 60.5 0 L 51.125 0 L 50.5 -11.125 C 48.75 -7.625 46.1875 -4.644531 42.8125 -2.1875 C 39.4375 0.269531 34.914062 1.5 29.25 1.5 Z M 30.875 -7.375 C 34.875 -7.375 38.3125 -8.414062 41.1875 -10.5 C 44.0625 -12.582031 46.25 -15.289062 47.75 -18.625 C 49.25 -21.957031 50 -25.457031 50 -29.125 L 50 -29.25 L 34.125 -29.25 C 27.957031 -29.25 23.601562 -28.1875 21.0625 -26.0625 C 18.519531 -23.9375 17.25 -21.289062 17.25 -18.125 C 17.25 -14.875 18.4375 -12.269531 20.8125 -10.3125 C 23.1875 -8.351562 26.539062 -7.375 30.875 -7.375 Z M 30.875 -7.375 "/></g></g></g><g fill="#0b0f8f" fill-opacity="1"><g transform="translate(676.132598, 711.218295)"><g><path d="M 33.125 0 C 27.457031 0 23 -1.375 19.75 -4.125 C 16.5 -6.875 14.875 -11.832031 14.875 -19 L 14.875 -53.125 L 4.125 -53.125 L 4.125 -62 L 14.875 -62 L 16.25 -76.890625 L 25.375 -76.890625 L 25.375 -62 L 43.625 -62 L 43.625 -53.125 L 25.375 -53.125 L 25.375 -19 C 25.375 -15.082031 26.164062 -12.4375 27.75 -11.0625 C 29.332031 -9.6875 32.125 -9 36.125 -9 L 42.625 -9 L 42.625 0 Z M 33.125 0 "/></g></g></g><g fill="#0b0f8f" fill-opacity="1"><g transform="translate(724.513648, 711.218295)"><g><path d="M 15 -75.765625 C 12.914062 -75.765625 11.1875 -76.453125 9.8125 -77.828125 C 8.4375 -79.203125 7.75 -80.929688 7.75 -83.015625 C 7.75 -85.015625 8.4375 -86.679688 9.8125 -88.015625 C 11.1875 -89.347656 12.914062 -90.015625 15 -90.015625 C 17 -90.015625 18.707031 -89.347656 20.125 -88.015625 C 21.539062 -86.679688 22.25 -85.015625 22.25 -83.015625 C 22.25 -80.929688 21.539062 -79.203125 20.125 -77.828125 C 18.707031 -76.453125 17 -75.765625 15 -75.765625 Z M 9.75 0 L 9.75 -62 L 20.25 -62 L 20.25 0 Z M 9.75 0 "/></g></g></g><g fill="#0b0f8f" fill-opacity="1"><g transform="translate(754.392361, 711.218295)"><g><path d="M 36.875 1.5 C 31.039062 1.5 25.789062 0.164062 21.125 -2.5 C 16.457031 -5.164062 12.769531 -8.9375 10.0625 -13.8125 C 7.351562 -18.6875 6 -24.414062 6 -31 C 6 -37.582031 7.375 -43.3125 10.125 -48.1875 C 12.875 -53.0625 16.601562 -56.832031 21.3125 -59.5 C 26.019531 -62.175781 31.289062 -63.515625 37.125 -63.515625 C 42.957031 -63.515625 48.207031 -62.175781 52.875 -59.5 C 57.539062 -56.832031 61.226562 -53.0625 63.9375 -48.1875 C 66.65625 -43.3125 68.015625 -37.582031 68.015625 -31 C 68.015625 -24.414062 66.632812 -18.6875 63.875 -13.8125 C 61.125 -8.9375 57.394531 -5.164062 52.6875 -2.5 C 47.976562 0.164062 42.707031 1.5 36.875 1.5 Z M 36.875 -7.5 C 40.457031 -7.5 43.789062 -8.375 46.875 -10.125 C 49.957031 -11.875 52.457031 -14.5 54.375 -18 C 56.289062 -21.5 57.25 -25.832031 57.25 -31 C 57.25 -36.164062 56.3125 -40.5 54.4375 -44 C 52.5625 -47.5 50.082031 -50.125 47 -51.875 C 43.914062 -53.625 40.625 -54.5 37.125 -54.5 C 33.539062 -54.5 30.207031 -53.625 27.125 -51.875 C 24.039062 -50.125 21.539062 -47.5 19.625 -44 C 17.707031 -40.5 16.75 -36.164062 16.75 -31 C 16.75 -25.832031 17.707031 -21.5 19.625 -18 C 21.539062 -14.5 24.019531 -11.875 27.0625 -10.125 C 30.101562 -8.375 33.375 -7.5 36.875 -7.5 Z M 36.875 -7.5 "/></g></g></g><g fill="#0b0f8f" fill-opacity="1"><g transform="translate(828.401594, 711.218295)"><g><path d="M 8.625 0 L 8.625 -62 L 18.125 -62 L 18.75 -50.875 C 20.75 -54.789062 23.625 -57.875 27.375 -60.125 C 31.125 -62.382812 35.375 -63.515625 40.125 -63.515625 C 47.457031 -63.515625 53.3125 -61.28125 57.6875 -56.8125 C 62.070312 -52.351562 64.265625 -45.5 64.265625 -36.25 L 64.265625 0 L 53.75 0 L 53.75 -35.125 C 53.75 -48.039062 48.414062 -54.5 37.75 -54.5 C 32.414062 -54.5 27.976562 -52.5625 24.4375 -48.6875 C 20.894531 -44.8125 19.125 -39.289062 19.125 -32.125 L 19.125 0 Z M 8.625 0 "/></g></g></g><g fill="#0b0f8f" fill-opacity="1"><g transform="translate(899.910545, 711.218295)"><g><path d="M 29.25 1.5 C 24.082031 1.5 19.789062 0.625 16.375 -1.125 C 12.957031 -2.875 10.414062 -5.207031 8.75 -8.125 C 7.082031 -11.039062 6.25 -14.207031 6.25 -17.625 C 6.25 -23.957031 8.664062 -28.832031 13.5 -32.25 C 18.332031 -35.664062 24.914062 -37.375 33.25 -37.375 L 50 -37.375 L 50 -38.125 C 50 -43.539062 48.582031 -47.644531 45.75 -50.4375 C 42.914062 -53.226562 39.125 -54.625 34.375 -54.625 C 30.289062 -54.625 26.769531 -53.601562 23.8125 -51.5625 C 20.851562 -49.519531 19 -46.539062 18.25 -42.625 L 7.5 -42.625 C 7.914062 -47.125 9.4375 -50.914062 12.0625 -54 C 14.6875 -57.082031 17.957031 -59.4375 21.875 -61.0625 C 25.789062 -62.695312 29.957031 -63.515625 34.375 -63.515625 C 43.039062 -63.515625 49.5625 -61.195312 53.9375 -56.5625 C 58.3125 -51.9375 60.5 -45.789062 60.5 -38.125 L 60.5 0 L 51.125 0 L 50.5 -11.125 C 48.75 -7.625 46.1875 -4.644531 42.8125 -2.1875 C 39.4375 0.269531 34.914062 1.5 29.25 1.5 Z M 30.875 -7.375 C 34.875 -7.375 38.3125 -8.414062 41.1875 -10.5 C 44.0625 -12.582031 46.25 -15.289062 47.75 -18.625 C 49.25 -21.957031 50 -25.457031 50 -29.125 L 50 -29.25 L 34.125 -29.25 C 27.957031 -29.25 23.601562 -28.1875 21.0625 -26.0625 C 18.519531 -23.9375 17.25 -21.289062 17.25 -18.125 C 17.25 -14.875 18.4375 -12.269531 20.8125 -10.3125 C 23.1875 -8.351562 26.539062 -7.375 30.875 -7.375 Z M 30.875 -7.375 "/></g></g></g><g fill="#0b0f8f" fill-opacity="1"><g transform="translate(967.543977, 711.218295)"><g><path d="M 8.625 0 L 8.625 -90.015625 L 19.125 -90.015625 L 19.125 0 Z M 8.625 0 "/></g></g></g><g fill="#0b0f8f" fill-opacity="1"><g transform="translate(995.297453, 711.218295)"><g/></g></g><g fill="#0b0f8f" fill-opacity="1"><g transform="translate(1028.426586, 711.218295)"><g><path d="M 9.25 0 L 9.25 -87.515625 L 19.75 -87.515625 L 19.75 -8.375 L 60.5 -8.375 L 60.5 0 Z M 9.25 0 "/></g></g></g><g fill="#0b0f8f" fill-opacity="1"><g transform="translate(1094.059774, 711.218295)"><g><path d="M 36.875 1.5 C 31.039062 1.5 25.789062 0.164062 21.125 -2.5 C 16.457031 -5.164062 12.769531 -8.9375 10.0625 -13.8125 C 7.351562 -18.6875 6 -24.414062 6 -31 C 6 -37.582031 7.375 -43.3125 10.125 -48.1875 C 12.875 -53.0625 16.601562 -56.832031 21.3125 -59.5 C 26.019531 -62.175781 31.289062 -63.515625 37.125 -63.515625 C 42.957031 -63.515625 48.207031 -62.175781 52.875 -59.5 C 57.539062 -56.832031 61.226562 -53.0625 63.9375 -48.1875 C 66.65625 -43.3125 68.015625 -37.582031 68.015625 -31 C 68.015625 -24.414062 66.632812 -18.6875 63.875 -13.8125 C 61.125 -8.9375 57.394531 -5.164062 52.6875 -2.5 C 47.976562 0.164062 42.707031 1.5 36.875 1.5 Z M 36.875 -7.5 C 40.457031 -7.5 43.789062 -8.375 46.875 -10.125 C 49.957031 -11.875 52.457031 -14.5 54.375 -18 C 56.289062 -21.5 57.25 -25.832031 57.25 -31 C 57.25 -36.164062 56.3125 -40.5 54.4375 -44 C 52.5625 -47.5 50.082031 -50.125 47 -51.875 C 43.914062 -53.625 40.625 -54.5 37.125 -54.5 C 33.539062 -54.5 30.207031 -53.625 27.125 -51.875 C 24.039062 -50.125 21.539062 -47.5 19.625 -44 C 17.707031 -40.5 16.75 -36.164062 16.75 -31 C 16.75 -25.832031 17.707031 -21.5 19.625 -18 C 21.539062 -14.5 24.019531 -11.875 27.0625 -10.125 C 30.101562 -8.375 33.375 -7.5 36.875 -7.5 Z M 36.875 -7.5 "/></g></g></g><g fill="#0b0f8f" fill-opacity="1"><g transform="translate(1168.069029, 711.218295)"><g><path d="M 29.25 1.5 C 24.082031 1.5 19.789062 0.625 16.375 -1.125 C 12.957031 -2.875 10.414062 -5.207031 8.75 -8.125 C 7.082031 -11.039062 6.25 -14.207031 6.25 -17.625 C 6.25 -23.957031 8.664062 -28.832031 13.5 -32.25 C 18.332031 -35.664062 24.914062 -37.375 33.25 -37.375 L 50 -37.375 L 50 -38.125 C 50 -43.539062 48.582031 -47.644531 45.75 -50.4375 C 42.914062 -53.226562 39.125 -54.625 34.375 -54.625 C 30.289062 -54.625 26.769531 -53.601562 23.8125 -51.5625 C 20.851562 -49.519531 19 -46.539062 18.25 -42.625 L 7.5 -42.625 C 7.914062 -47.125 9.4375 -50.914062 12.0625 -54 C 14.6875 -57.082031 17.957031 -59.4375 21.875 -61.0625 C 25.789062 -62.695312 29.957031 -63.515625 34.375 -63.515625 C 43.039062 -63.515625 49.5625 -61.195312 53.9375 -56.5625 C 58.3125 -51.9375 60.5 -45.789062 60.5 -38.125 L 60.5 0 L 51.125 0 L 50.5 -11.125 C 48.75 -7.625 46.1875 -4.644531 42.8125 -2.1875 C 39.4375 0.269531 34.914062 1.5 29.25 1.5 Z M 30.875 -7.375 C 34.875 -7.375 38.3125 -8.414062 41.1875 -10.5 C 44.0625 -12.582031 46.25 -15.289062 47.75 -18.625 C 49.25 -21.957031 50 -25.457031 50 -29.125 L 50 -29.25 L 34.125 -29.25 C 27.957031 -29.25 23.601562 -28.1875 21.0625 -26.0625 C 18.519531 -23.9375 17.25 -21.289062 17.25 -18.125 C 17.25 -14.875 18.4375 -12.269531 20.8125 -10.3125 C 23.1875 -8.351562 26.539062 -7.375 30.875 -7.375 Z M 30.875 -7.375 "/></g></g></g><g fill="#0b0f8f" fill-opacity="1"><g transform="translate(1235.702461, 711.218295)"><g><path d="M 36.75 1.5 C 30.582031 1.5 25.1875 0.0820312 20.5625 -2.75 C 15.9375 -5.582031 12.351562 -9.457031 9.8125 -14.375 C 7.269531 -19.289062 6 -24.875 6 -31.125 C 6 -37.375 7.289062 -42.9375 9.875 -47.8125 C 12.457031 -52.6875 16.039062 -56.519531 20.625 -59.3125 C 25.207031 -62.113281 30.625 -63.515625 36.875 -63.515625 C 41.957031 -63.515625 46.457031 -62.46875 50.375 -60.375 C 54.289062 -58.289062 57.332031 -55.375 59.5 -51.625 L 59.5 -90.015625 L 70.015625 -90.015625 L 70.015625 0 L 60.5 0 L 59.5 -10.25 C 57.5 -7.25 54.625 -4.539062 50.875 -2.125 C 47.125 0.289062 42.414062 1.5 36.75 1.5 Z M 37.875 -7.625 C 42.039062 -7.625 45.726562 -8.601562 48.9375 -10.5625 C 52.144531 -12.519531 54.644531 -15.25 56.4375 -18.75 C 58.226562 -22.25 59.125 -26.332031 59.125 -31 C 59.125 -35.664062 58.226562 -39.75 56.4375 -43.25 C 54.644531 -46.75 52.144531 -49.476562 48.9375 -51.4375 C 45.726562 -53.394531 42.039062 -54.375 37.875 -54.375 C 33.789062 -54.375 30.144531 -53.394531 26.9375 -51.4375 C 23.726562 -49.476562 21.226562 -46.75 19.4375 -43.25 C 17.644531 -39.75 16.75 -35.664062 16.75 -31 C 16.75 -26.332031 17.644531 -22.25 19.4375 -18.75 C 21.226562 -15.25 23.726562 -12.519531 26.9375 -10.5625 C 30.144531 -8.601562 33.789062 -7.625 37.875 -7.625 Z M 37.875 -7.625 "/></g></g></g><g fill="#0b0f8f" fill-opacity="1"><g transform="translate(522.363396, 885.96828)"><g><path d="M 47.625 1.5 C 39.039062 1.5 31.644531 -0.394531 25.4375 -4.1875 C 19.226562 -7.976562 14.414062 -13.269531 11 -20.0625 C 7.582031 -26.851562 5.875 -34.75 5.875 -43.75 C 5.875 -52.664062 7.582031 -60.519531 11 -67.3125 C 14.414062 -74.113281 19.226562 -79.429688 25.4375 -83.265625 C 31.644531 -87.097656 39.039062 -89.015625 47.625 -89.015625 C 57.632812 -89.015625 65.785156 -86.617188 72.078125 -81.828125 C 78.367188 -77.035156 82.390625 -70.34375 84.140625 -61.75 L 72.515625 -61.75 C 71.179688 -67.175781 68.445312 -71.535156 64.3125 -74.828125 C 60.1875 -78.117188 54.625 -79.765625 47.625 -79.765625 C 41.375 -79.765625 35.914062 -78.328125 31.25 -75.453125 C 26.582031 -72.578125 22.976562 -68.445312 20.4375 -63.0625 C 17.894531 -57.6875 16.625 -51.25 16.625 -43.75 C 16.625 -36.25 17.894531 -29.8125 20.4375 -24.4375 C 22.976562 -19.0625 26.582031 -14.9375 31.25 -12.0625 C 35.914062 -9.1875 41.375 -7.75 47.625 -7.75 C 54.625 -7.75 60.1875 -9.351562 64.3125 -12.5625 C 68.445312 -15.769531 71.179688 -20.039062 72.515625 -25.375 L 84.140625 -25.375 C 82.390625 -16.957031 78.367188 -10.375 72.078125 -5.625 C 65.785156 -0.875 57.632812 1.5 47.625 1.5 Z M 47.625 1.5 "/></g></g></g><g fill="#0b0f8f" fill-opacity="1"><g transform="translate(612.374638, 885.96828)"><g><path d="M 36.875 1.5 C 31.039062 1.5 25.789062 0.164062 21.125 -2.5 C 16.457031 -5.164062 12.769531 -8.9375 10.0625 -13.8125 C 7.351562 -18.6875 6 -24.414062 6 -31 C 6 -37.582031 7.375 -43.3125 10.125 -48.1875 C 12.875 -53.0625 16.601562 -56.832031 21.3125 -59.5 C 26.019531 -62.175781 31.289062 -63.515625 37.125 -63.515625 C 42.957031 -63.515625 48.207031 -62.175781 52.875 -59.5 C 57.539062 -56.832031 61.226562 -53.0625 63.9375 -48.1875 C 66.65625 -43.3125 68.015625 -37.582031 68.015625 -31 C 68.015625 -24.414062 66.632812 -18.6875 63.875 -13.8125 C 61.125 -8.9375 57.394531 -5.164062 52.6875 -2.5 C 47.976562 0.164062 42.707031 1.5 36.875 1.5 Z M 36.875 -7.5 C 40.457031 -7.5 43.789062 -8.375 46.875 -10.125 C 49.957031 -11.875 52.457031 -14.5 54.375 -18 C 56.289062 -21.5 57.25 -25.832031 57.25 -31 C 57.25 -36.164062 56.3125 -40.5 54.4375 -44 C 52.5625 -47.5 50.082031 -50.125 47 -51.875 C 43.914062 -53.625 40.625 -54.5 37.125 -54.5 C 33.539062 -54.5 30.207031 -53.625 27.125 -51.875 C 24.039062 -50.125 21.539062 -47.5 19.625 -44 C 17.707031 -40.5 16.75 -36.164062 16.75 -31 C 16.75 -25.832031 17.707031 -21.5 19.625 -18 C 21.539062 -14.5 24.019531 -11.875 27.0625 -10.125 C 30.101562 -8.375 33.375 -7.5 36.875 -7.5 Z M 36.875 -7.5 "/></g></g></g><g fill="#0b0f8f" fill-opacity="1"><g transform="translate(686.383882, 885.96828)"><g><path d="M 31.25 1.5 C 23.914062 1.5 18.082031 -0.726562 13.75 -5.1875 C 9.414062 -9.644531 7.25 -16.5 7.25 -25.75 L 7.25 -62 L 17.75 -62 L 17.75 -26.875 C 17.75 -13.957031 23.039062 -7.5 33.625 -7.5 C 39.039062 -7.5 43.519531 -9.4375 47.0625 -13.3125 C 50.601562 -17.1875 52.375 -22.707031 52.375 -29.875 L 52.375 -62 L 62.890625 -62 L 62.890625 0 L 53.375 0 L 52.625 -11.125 C 50.707031 -7.207031 47.851562 -4.125 44.0625 -1.875 C 40.269531 0.375 36 1.5 31.25 1.5 Z M 31.25 1.5 "/></g></g></g><g fill="#0b0f8f" fill-opacity="1"><g transform="translate(757.89281, 885.96828)"><g><path d="M 8.625 0 L 8.625 -62 L 18.125 -62 L 18.75 -50.875 C 20.75 -54.789062 23.625 -57.875 27.375 -60.125 C 31.125 -62.382812 35.375 -63.515625 40.125 -63.515625 C 47.457031 -63.515625 53.3125 -61.28125 57.6875 -56.8125 C 62.070312 -52.351562 64.265625 -45.5 64.265625 -36.25 L 64.265625 0 L 53.75 0 L 53.75 -35.125 C 53.75 -48.039062 48.414062 -54.5 37.75 -54.5 C 32.414062 -54.5 27.976562 -52.5625 24.4375 -48.6875 C 20.894531 -44.8125 19.125 -39.289062 19.125 -32.125 L 19.125 0 Z M 8.625 0 "/></g></g></g><g fill="#0b0f8f" fill-opacity="1"><g transform="translate(829.401737, 885.96828)"><g><path d="M 33.125 0 C 27.457031 0 23 -1.375 19.75 -4.125 C 16.5 -6.875 14.875 -11.832031 14.875 -19 L 14.875 -53.125 L 4.125 -53.125 L 4.125 -62 L 14.875 -62 L 16.25 -76.890625 L 25.375 -76.890625 L 25.375 -62 L 43.625 -62 L 43.625 -53.125 L 25.375 -53.125 L 25.375 -19 C 25.375 -15.082031 26.164062 -12.4375 27.75 -11.0625 C 29.332031 -9.6875 32.125 -9 36.125 -9 L 42.625 -9 L 42.625 0 Z M 33.125 0 "/></g></g></g></svg>